<?xml version="1.0" encoding="UTF-8" standalone="no" ?>
<!DOCTYPE svg PUBLIC "-//W3C//DTD SVG 1.1//EN" "http://www.w3.org/Graphics/SVG/1.1/DTD/svg11.dtd">
<svg viewBox="0 0 310 80.33311711783563" preserveAspectRatio="xMidYMid meet" class="css-g5ufxp" id="agdfhbfg">
<defs id="SvgjsDefs1706">
<linearGradient id="SvgjsLinearGradient1711">
<stop id="SvgjsStop1712" stop-color="#8f5e25" offset="0"></stop>
<stop id="SvgjsStop1713" stop-color="#fbf4a1" offset="0.5"></stop>
<stop id="SvgjsStop1714" stop-color="#8f5e25" offset="1"></stop>
</linearGradient>
<linearGradient id="SvgjsLinearGradient1715">
<stop id="SvgjsStop1716" stop-color="#8f5e25" offset="0"></stop>
<stop id="SvgjsStop1717" stop-color="#fbf4a1" offset="0.5"></stop>
<stop id="SvgjsStop1718" stop-color="#8f5e25" offset="1"></stop>
</linearGradient>
</defs>
<g id="SvgjsG1707" featurekey="X3o6dM-0" transform="matrix(4.209488139721748,0,0,4.209488139721748,-2.104743066240693,-31.150218657110095)" fill="#111">
<path d="M4.64 9.76 q-1.02 0.36 -1.66 0.58 t-1.03 0.35 t-0.6 0.18 t-0.37 0.05 q-0.48 0 -0.48 -0.24 q0 -0.14 0.14 -0.32 t0.31 -0.34 t0.33 -0.28 t0.22 -0.14 q0.82 -0.56 1.8 -0.97 t2.03 -0.68 t2.14 -0.41 t2.15 -0.14 q0.64 0 1.34 0.06 t1.34 0.14 q0.54 0.08 1.21 0.22 t1.37 0.36 t1.36 0.53 t1.18 0.73 t0.83 0.97 t0.31 1.23 q0 0.98 -0.53 1.73 t-1.37 1.29 t-1.89 0.92 t-2.1 0.63 t-2 0.4 t-1.57 0.23 q-0.02 0.62 -0.09 1.46 t-0.19 1.6 t-0.3 1.29 t-0.44 0.53 q-0.16 0 -0.26 -0.32 q-0.28 -0.72 -0.33 -1.76 t-0.05 -2.58 q-0.88 0.1 -1.73 0.18 t-1.69 0.16 q-0.02 -0.02 -0.27 0 t-0.63 0.05 t-0.81 0.05 t-0.8 0 t-0.62 -0.1 t-0.25 -0.24 t0.47 -0.3 t1.1 -0.24 t1.23 -0.16 t0.88 -0.1 q0.76 -0.04 1.54 -0.15 t1.6 -0.23 q0.06 -0.16 0.09 -0.56 t0.07 -0.9 t0.09 -1.03 t0.13 -0.97 t0.21 -0.73 t0.35 -0.29 q0.44 0 0.68 0.24 t0.33 0.62 t0.08 0.84 t-0.07 0.93 t-0.14 0.88 t-0.1 0.67 q0.44 -0.06 1.21 -0.19 t1.65 -0.34 t1.78 -0.51 t1.63 -0.72 t1.19 -0.95 t0.46 -1.21 q0 -0.54 -0.37 -0.95 t-0.97 -0.72 t-1.37 -0.52 t-1.58 -0.34 t-1.6 -0.18 t-1.41 -0.05 q-1.32 0 -2.61 0.21 t-2.55 0.55 z M19.98 14.54 q0.28 0.06 0.49 0.26 t0.35 0.44 q0.16 -0.18 0.4 -0.2 t0.46 0.07 t0.36 0.28 t0.1 0.45 q-0.08 0.36 -0.15 0.9 t-0.09 1.04 t0.03 0.86 t0.21 0.36 q0.12 0 0.29 -0.31 t0.34 -0.73 t0.31 -0.84 t0.18 -0.64 q0.06 -0.2 0.2 -0.27 t0.27 -0.04 t0.22 0.15 t0.03 0.3 q-0.04 0.12 -0.13 0.45 t-0.23 0.73 t-0.33 0.83 t-0.44 0.76 t-0.56 0.51 t-0.67 0.08 q-0.58 -0.16 -0.84 -0.7 q-0.16 0.48 -0.44 0.87 t-0.72 0.57 q-0.42 0.14 -0.74 0.06 q-0.58 -0.16 -0.92 -0.72 t-0.46 -1.3 t-0.02 -1.54 t0.41 -1.44 t0.83 -1.01 t1.26 -0.23 z M20.5 16.56 q-0.04 -0.34 -0.15 -0.66 t-0.33 -0.36 q-0.32 -0.06 -0.57 0.23 t-0.41 0.77 t-0.23 1.05 t-0.04 1.08 t0.16 0.87 t0.39 0.4 t0.49 -0.28 t0.4 -0.82 t0.26 -1.11 t0.03 -1.17 z M23.32 15.34 q0 -0.34 0.25 -0.51 t0.55 -0.2 t0.54 0.08 t0.22 0.33 q-0.04 0.64 -0.12 1.34 t-0.16 1.3 t-0.1 1.01 t0.1 0.45 q0.1 0.04 0.22 -0.15 t0.24 -0.51 t0.25 -0.72 t0.25 -0.8 t0.22 -0.76 t0.18 -0.58 q0.02 -0.3 0.27 -0.37 t0.53 0.01 t0.49 0.24 t0.19 0.34 q-0.08 0.36 -0.15 0.9 t-0.09 1.04 t0.03 0.86 t0.23 0.36 q0.12 0 0.29 -0.31 t0.33 -0.73 t0.3 -0.84 t0.18 -0.64 q0.04 -0.2 0.18 -0.27 t0.28 -0.04 t0.23 0.15 t0.03 0.3 q-0.04 0.16 -0.17 0.6 t-0.34 0.96 t-0.5 1 t-0.65 0.7 q-0.22 0.14 -0.49 0.12 t-0.52 -0.15 t-0.44 -0.38 t-0.25 -0.59 q-0.06 -0.3 -0.06 -0.68 q-0.18 0.56 -0.42 1.06 t-0.56 0.82 q-0.2 0.22 -0.47 0.25 t-0.52 -0.09 t-0.44 -0.35 t-0.25 -0.53 t-0.06 -0.76 t0.03 -1 t0.08 -1.12 t0.07 -1.14 z M28.900000000000002 11.64 q0 -0.48 0.26 -0.67 t0.57 -0.17 t0.54 0.22 t0.17 0.52 q-0.04 0.24 -0.13 0.94 t-0.17 1.61 t-0.14 1.89 t-0.07 1.81 t0.06 1.36 t0.27 0.53 q0.12 0 0.33 -0.44 t0.42 -1 t0.39 -1.09 t0.24 -0.69 q0.04 -0.18 0.18 -0.24 t0.27 -0.03 t0.22 0.14 t0.03 0.29 q-0.12 0.4 -0.32 1.12 t-0.5 1.42 t-0.72 1.22 t-1 0.52 q-0.54 0 -0.81 -0.57 t-0.37 -1.45 t-0.07 -1.96 t0.11 -2.11 t0.16 -1.88 t0.08 -1.29 z M32.74 11.58 q0.04 0.26 -0.13 0.77 t-0.45 0.99 t-0.61 0.77 t-0.61 0.09 q-0.1 -0.08 -0.03 -0.24 t0.16 -0.53 t0.11 -0.99 t-0.18 -1.62 q-0.04 -0.22 0.2 -0.25 t0.56 0.09 t0.62 0.37 t0.36 0.55 z M34.76 14.76 q0.26 -0.14 0.52 0 t0.4 0.39 t0.09 0.52 t-0.41 0.37 q-0.32 0.08 -0.67 0.16 t-0.66 0.14 t-0.53 0.11 t-0.28 0.05 q0.04 0 0.43 0.11 t0.83 0.36 t0.8 0.67 t0.36 1.06 q0 0.7 -0.48 1.11 t-1.12 0.55 q-0.4 0.06 -0.77 0 t-0.66 -0.25 t-0.47 -0.52 t-0.18 -0.79 q0 -0.38 0.25 -0.6 t0.54 -0.28 t0.52 0.06 t0.19 0.42 q-0.1 0.62 0.06 0.9 t0.32 0.28 q0.2 0 0.33 -0.14 t0.15 -0.37 t-0.08 -0.52 t-0.32 -0.59 q-0.18 -0.26 -0.45 -0.47 t-0.54 -0.36 t-0.53 -0.24 t-0.42 -0.13 q-0.18 -0.04 -0.27 -0.25 t-0.08 -0.44 t0.16 -0.42 t0.45 -0.19 q0.6 0 1.29 -0.19 t1.23 -0.51 z M45.019999999999996 21.22 q-0.68 -0.06 -1.42 -0.17 t-1.36 -0.26 t-1.02 -0.35 t-0.4 -0.44 t0.29 -0.38 t0.65 -0.22 q0.4 -0.08 0.94 -0.12 q0.36 0 0.72 0.07 t0.72 0.07 q1.92 0.26 3.91 0.34 t3.97 -0.2 q0.42 -0.06 1 -0.17 t1.12 -0.32 t0.92 -0.54 t0.42 -0.81 q0 -0.44 -0.3 -0.81 t-0.74 -0.64 t-0.93 -0.45 t-0.87 -0.26 q-0.48 -0.12 -1.14 -0.24 t-1.39 -0.22 t-1.5 -0.19 t-1.45 -0.13 l0 1 q0 0.38 -0.04 0.93 t-0.16 1.07 t-0.34 0.89 t-0.56 0.37 q-0.12 0 -0.18 -0.12 t-0.09 -0.29 t-0.04 -0.36 t-0.03 -0.33 q-0.16 -1.22 -0.26 -2.51 t0.06 -2.63 q0.02 -0.26 0.1 -0.58 t0.18 -0.61 t0.2 -0.48 t0.2 -0.19 q0.14 0 0.32 0.15 t0.33 0.42 t0.26 0.62 t0.11 0.77 q0 0.32 -0.03 0.62 t-0.03 0.62 q0.08 0.02 0.24 0.02 l0.74 0 q0.9 0 1.79 -0.06 t1.77 -0.22 q0.48 -0.08 1.15 -0.25 t1.3 -0.45 t1.07 -0.67 t0.44 -0.93 q0 -0.34 -0.27 -0.63 t-0.66 -0.51 t-0.83 -0.38 t-0.76 -0.24 q-0.7 -0.2 -1.47 -0.25 t-1.47 -0.05 q-2.36 0 -4.73 0.46 t-4.65 1.6 q-0.22 0.14 -0.47 0.11 t-0.25 -0.41 q0 -0.54 0.37 -0.97 t0.91 -0.76 t1.16 -0.55 t1.12 -0.34 q1.52 -0.4 3.19 -0.61 t3.75 -0.21 q0.56 0.02 1.27 0.09 t1.45 0.23 t1.45 0.43 t1.26 0.68 t0.88 0.98 t0.33 1.33 q0 0.58 -0.3 1.09 t-0.78 0.93 t-1.06 0.73 t-1.14 0.49 q0.56 0.14 1.1 0.36 t0.96 0.57 t0.67 0.84 t0.25 1.15 q0 0.86 -0.46 1.47 t-1.15 1.01 t-1.49 0.63 t-1.48 0.33 q-1.76 0.3 -3.61 0.28 t-3.75 -0.24 l0.02 0 z M57.9 15.84 q0 -0.48 0.25 -0.66 t0.55 -0.14 t0.52 0.26 t0.16 0.54 q-0.08 0.36 -0.15 0.9 t-0.09 1.04 t0.03 0.86 t0.23 0.36 q0.12 0 0.29 -0.31 t0.33 -0.73 t0.3 -0.84 t0.18 -0.64 q0.06 -0.2 0.2 -0.27 t0.27 -0.04 t0.22 0.15 t0.03 0.3 q-0.04 0.12 -0.13 0.45 t-0.23 0.73 t-0.33 0.83 t-0.44 0.76 t-0.55 0.51 t-0.66 0.08 q-0.54 -0.16 -0.77 -0.59 t-0.27 -1 t0.01 -1.24 t0.05 -1.31 z M60.17999999999999 13.1 q0.04 0.22 -0.05 0.41 t-0.27 0.34 t-0.42 0.25 t-0.5 0.14 q-0.5 0.06 -0.98 -0.1 t-0.54 -0.58 q-0.08 -0.44 0.27 -0.75 t0.93 -0.41 t1.04 0.09 t0.52 0.61 z M65.67999999999999 16.42 q0.08 -0.18 0.22 -0.23 t0.26 -0.01 t0.17 0.15 t-0.03 0.29 q-0.12 0.28 -0.33 0.82 t-0.5 1.09 t-0.69 0.97 t-0.9 0.46 q-0.6 0.04 -0.87 -0.3 t-0.36 -0.82 t-0.06 -0.96 t0.07 -0.7 q0 -0.1 -0.1 -0.1 t-0.25 0.06 t-0.3 0.17 t-0.23 0.23 q-0.02 0.76 -0.03 1.42 t0.01 1.1 q0 0.28 -0.21 0.41 t-0.48 0.12 t-0.48 -0.16 t-0.21 -0.45 q0.02 -0.5 0.05 -1.26 t0.05 -1.62 t0.04 -1.75 t0.03 -1.66 t0.01 -1.34 l0 -0.79 q-0.02 -0.38 0.23 -0.61 t0.55 -0.31 t0.54 0 t0.2 0.3 q-0.02 0.14 -0.06 0.66 t-0.08 1.28 t-0.08 1.67 t-0.06 1.83 q0.46 -0.56 0.85 -1.05 t0.47 -0.97 q0.02 -0.22 0.33 -0.34 t0.64 -0.12 t0.57 0.14 t0.12 0.4 q-0.14 0.3 -0.49 0.6 t-0.73 0.58 t-0.72 0.52 t-0.46 0.42 q0.14 -0.04 0.47 -0.15 t0.64 -0.14 t0.5 0.11 t0.05 0.6 q-0.12 0.36 -0.14 0.74 t0.02 0.67 t0.15 0.44 t0.27 0.05 q0.18 -0.12 0.36 -0.42 t0.36 -0.67 t0.34 -0.75 t0.28 -0.62 z M68.95999999999998 16.5 q-0.16 0.22 -0.4 0.36 t-0.52 0.23 t-0.57 0.13 t-0.51 0.06 q-0.06 0.42 -0.07 0.82 t0.04 0.72 t0.16 0.54 t0.31 0.28 q0.26 0.08 0.56 -0.09 t0.58 -0.47 t0.54 -0.7 t0.46 -0.77 t0.34 -0.68 t0.18 -0.45 q0.06 -0.18 0.19 -0.24 t0.25 -0.04 t0.2 0.13 t0.04 0.29 q-0.04 0.12 -0.14 0.47 t-0.29 0.79 t-0.46 0.91 t-0.65 0.86 t-0.87 0.65 t-1.09 0.26 q-0.72 0 -1.12 -0.5 t-0.54 -1.26 t-0.05 -1.63 t0.36 -1.63 t0.68 -1.26 t0.91 -0.5 q0.48 0 0.85 0.33 t0.57 0.77 t0.23 0.9 t-0.17 0.72 z M67.71999999999998 14.719999999999999 q-0.14 0.06 -0.3 0.51 t-0.3 1.09 q0.22 0 0.44 -0.05 t0.32 -0.21 q0.08 -0.12 0.1 -0.35 t-0.01 -0.47 t-0.1 -0.4 t-0.15 -0.12 z M73.11999999999999 14.76 q0.26 -0.14 0.52 0 t0.4 0.39 t0.09 0.52 t-0.41 0.37 q-0.32 0.08 -0.67 0.16 t-0.66 0.14 t-0.53 0.11 t-0.28 0.05 q0.04 0 0.43 0.11 t0.83 0.36 t0.8 0.67 t0.36 1.06 q0 0.7 -0.48 1.11 t-1.12 0.55 q-0.4 0.06 -0.77 0 t-0.66 -0.25 t-0.47 -0.52 t-0.18 -0.79 q0 -0.38 0.25 -0.6 t0.54 -0.28 t0.52 0.06 t0.19 0.42 q-0.1 0.62 0.06 0.9 t0.32 0.28 q0.2 0 0.33 -0.14 t0.15 -0.37 t-0.08 -0.52 t-0.32 -0.59 q-0.18 -0.26 -0.45 -0.47 t-0.54 -0.36 t-0.53 -0.24 t-0.42 -0.13 q-0.18 -0.04 -0.27 -0.25 t-0.08 -0.44 t0.16 -0.42 t0.45 -0.19 q0.6 0 1.29 -0.19 t1.23 -0.51 z"></path>
</g>
<g id="SvgjsG1708" featurekey="RFbU7s-0" transform="matrix(0.7225955930077939,0,0,0.7225955930077939,34.13288473709396,65.66442713107409)" fill="#111">
<path d="M8.68 12.26 c1.58 0.4 2.94 1.76 2.94 3.66 c0 2.54 -1.6 4.08 -5.1 4.08 l-5.32 0 l0 -14 l5.1 0 c2.88 0 4.32 1.62 4.32 3.48 c0 1.46 -0.92 2.36 -1.94 2.78 z M6.08 8.3 l-2.26 0 l0 3.18 l2.26 0 c1.32 0 1.94 -0.66 1.94 -1.6 c0 -1 -0.66 -1.58 -1.94 -1.58 z M6.4 17.7 c1.78 0 2.6 -0.74 2.6 -2.08 c0 -1.16 -0.82 -2.02 -2.68 -2.02 l-2.5 0 l0 4.1 l2.58 0 z M37.048 6 l2.62 0 l0 8.92 c0 3.4 -2.42 5.38 -5.32 5.38 c-2.92 0 -5.34 -1.98 -5.34 -5.38 l0 -8.92 l2.62 0 l0 8.92 c0 2.2 1.4 2.92 2.72 2.92 s2.7 -0.72 2.7 -2.92 l0 -8.92 z M60.176 6 l0 14 l-2.62 0 l0 -14 l2.62 0 z M80.684 17.58 l5.68 0 l0 2.42 l-8.3 0 l0 -14 l2.62 0 l0 11.58 z M113.25200000000001 6 l0 2.42 l-3.6 0 l0 11.58 l-2.62 0 l0 -11.58 l-3.58 0 l0 -2.42 l9.8 0 z M159.70800000000003 12.26 c1.58 0.4 2.94 1.76 2.94 3.66 c0 2.54 -1.6 4.08 -5.1 4.08 l-5.32 0 l0 -14 l5.1 0 c2.88 0 4.32 1.62 4.32 3.48 c0 1.46 -0.92 2.36 -1.94 2.78 z M157.10800000000003 8.3 l-2.26 0 l0 3.18 l2.26 0 c1.32 0 1.94 -0.66 1.94 -1.6 c0 -1 -0.66 -1.58 -1.94 -1.58 z M157.42800000000003 17.7 c1.78 0 2.6 -0.74 2.6 -2.08 c0 -1.16 -0.82 -2.02 -2.68 -2.02 l-2.5 0 l0 4.1 l2.58 0 z M192.656 6 l-5.3 7.92 l0 6.08 l-2.62 0 l0 -6.08 l-5.3 -7.92 l2.96 0 l3.64 5.54 l3.64 -5.54 l2.98 0 z M240.05200000000002 6 l2.62 0 l0 14 l-2.62 0 l0 -5.76 l-6 0 l0 5.76 l-2.62 0 l0 -14 l2.62 0 l0 5.82 l6 0 l0 -5.82 z M271.78000000000003 20 l-1.16 -2.7 l-6.92 0 l-1.16 2.7 l-2.78 0 l6.24 -14 l2.34 0 l6.22 14 l-2.78 0 z M264.62 15.16 l5.08 0 l-2.54 -5.92 z M300.94800000000004 6 l2.62 0 l0 14 l-2 0 l-7.3 -9.22 l0 9.22 l-2.62 0 l0 -14 l2.02 0 l7.28 9.24 l0 -9.24 z M326.25600000000003 6 c4 0 7.08 3.1 7.08 6.94 c0 3.96 -3.08 7.06 -7.08 7.06 l-4.8 0 l0 -14 l4.8 0 z M326.23600000000005 17.52 c2.84 0 4.44 -2.06 4.44 -4.58 c0 -2.4 -1.6 -4.46 -4.44 -4.46 l-2.16 0 l0 9.04 l2.16 0 z"></path>
</g>
</svg>