<?xml version="1.0" encoding="utf-8"?>
<svg viewBox="0.709 0.496 347.778 99.134" xmlns="http://www.w3.org/2000/svg">
  <defs>
    <linearGradient id="gradient-2" x1="421.03" x2="421.03" y1="18.896" y2="628" gradientUnits="userSpaceOnUse" gradientTransform="matrix(0.583352, 0.81222, -0.6885, 0.494494, 388.081773, -181.472216)">
      <stop id="SvgjsStop5458" offset="0" style="stop-color: rgba(53, 92, 97, 0.7);"/>
      <stop id="SvgjsStop5459" offset="0.5" style="stop-color: rgb(71, 127, 134);"/>
      <stop id="SvgjsStop5460" offset="1" style="stop-color: rgba(53, 92, 97, 0.7);"/>
    </linearGradient>
    <linearGradient gradientUnits="userSpaceOnUse" x1="196.906" y1="76.453" x2="196.906" y2="93.5" id="gradient-4" spreadMethod="reflect" gradientTransform="matrix(-0.003058, -0.999995, 5.374745, -0.016433, -213.407394, 256.61441)">
      <stop offset="0" style="stop-color: rgba(71, 127, 134, 1)"/>
      <stop offset="1" style="stop-color: rgba(36, 64, 67, 1)"/>
    </linearGradient>
    <linearGradient id="gradient-1" x1="181.034" x2="181.034" y1="68.447" y2="70.451" gradientUnits="userSpaceOnUse" spreadMethod="pad" gradientTransform="matrix(-0.000394, 0.999999, -102.848663, -0.040517, 7323.088379, -126.541321)">
      <stop id="SvgjsStop5466" offset="0" style="stop-color: rgb(53, 92, 97);"/>
      <stop id="SvgjsStop5467" offset="0.5" style="stop-color: rgb(71, 127, 134);"/>
      <stop id="SvgjsStop5468" offset="1" style="stop-color: rgb(53, 92, 97);"/>
    </linearGradient>
  </defs>
  <g id="g-1" featurekey="sloganFeature-0" transform="matrix(0.162754, 0, 0, 0.162754, 230.116821, -2.579144)" fill="url(#SvgjsLinearGradient5453)" style="">
    <path d="M427.094,18.9062C420.997,18.9619 414.866,19.2216 410,19C398.193,19.1923 387.765,20.7661 377,22C366.014,22.5118 356.147,25.9727 347,27C337.785,29.7839 328.49,32.4908 320,36C310.851,38.349 302.379,43.2045 295,46C286.486,49.4847 278.349,53.3498 271,58C263.051,61.5486 255.141,66.9661 249,71C242.876,76.8746 234.296,80.2972 229,87C221.612,91.1094 215.325,98.1508 210,103C204.001,108.999 197.999,115.001 192,121C191.36,121.787 190.52,122.282 189.594,122.625C186.879,126.284 184.204,129.765 182.094,132.281C177.69,139.148 172.448,145.178 168,152C164.062,159.559 157.885,166.71 155,174C150.35,181.349 146.485,189.486 143,198C138.256,204.754 135.644,215.469 132,222C129.64,231.638 125.583,239.584 124,250C121.508,259.005 119.988,270.813 118,279C117.415,290.414 115.966,300.967 115,312C114.139,324.359 115.83,335.996 117,345C118.918,334.027 114.625,324.727 118,314C118.706,303.208 119.24,290.415 121,282C122.101,276.414 125.004,252.267 127,262C130.12,257.271 131.98,243.154 134,236C136.72,226.721 138.52,216.519 143,209C147.186,201.689 150.914,192.088 154,185C158.298,177.299 162.693,169.692 168,163C167.776,156.736 181.561,140.379 177,149C166.313,158.182 171.449,163.325 178,150C182.714,143.216 186.735,133.91 191,128C198.296,123.298 200.997,113.996 209,110C213.464,102.966 220.875,97.0494 227,93C232.797,86.798 240.051,82.0501 248,78C255.138,73.6406 263.24,68.4147 270,65C278.129,61.1304 286.545,57.5436 295,54C303.07,50.5719 312.85,47.0243 320,44C325.212,37.4706 305.83,48.0262 301,49C282.325,55.7396 302.735,46.5136 308,45C315.995,40.9963 325.555,38.5533 334,35C343.095,32.5968 352.96,29.1348 362,28C371.875,25.8757 382.093,24.092 393,23C405.489,23.9907 416.363,21.5372 427,22C439.315,21.6837 448.583,24.4182 460,25C469.329,27.1686 481.137,28.6882 489,31C500.54,31.4587 507.186,36.8155 518,38C525.151,42.347 536.048,44.7775 542,49C551.852,51.1469 558.526,56.4751 567,60C571.761,63.1575 592.09,71.9109 578,64C571.191,58.8107 563.133,54.8659 555,51C547.482,47.0203 538.295,42.8793 531,40C523.698,35.3036 512.681,34.3183 504,31C496.355,27.1475 483.7,26.4745 476,24C465.687,22.3145 454.974,21.0251 444,20C439.252,18.9991 433.186,18.8506 427.094,18.9062L427.094,18.9062ZM433.812,24.875C429.826,24.8345 425.853,24.891 422,25C408.623,27.867 386.53,23.5388 377,29C392.769,26.4695 407.509,29.0297 422,27C438.116,26.2874 455.695,28.6629 468,28C457.932,25.8845 445.773,24.9964 433.812,24.875L433.812,24.875ZM494,38C494.194,40.1565 514.454,43.3849 520,47C530.089,50.2429 539.052,54.6158 547,60C548.34,56.3098 533.513,47.6481 526,46C515.842,42.826 504.411,40.9207 494,38L494,38ZM409.031,55.0938C397.955,55.309 387.369,56.1515 379,58C358.398,59.718 340.793,65.6713 325,71C308.946,77.2661 293.485,85.3632 280,93C266.103,101.423 252.741,111.619 241,121C229.594,131.914 217.926,143.804 209,156C199.044,168.364 189.354,182.232 182,196C174.265,210.585 166.78,226.658 162,243C156.85,260.17 152.791,279.669 151,299C151.123,321.197 149.959,345.919 154,363C156.072,383.248 161.999,400.878 168,416C173.984,432.336 181.116,448.758 190,461C197.825,475.495 208.571,488.311 218,500C228.275,512.045 242.24,521.638 253,532C265.645,541.675 279.378,551.496 294,558C308.6,565.72 324.264,573.61 341,578C358.272,583.048 377.683,587.191 397,589C419.162,588.842 443.952,590.082 461,586C480.219,582.899 499.758,578.884 514,572C530.667,566.347 546.127,558.25 559,550C573.268,541.948 587.251,532.373 598,522C608.701,510.381 621.76,499.875 631,488C640.532,475.211 649.5,460.622 657,447C664.462,432.142 672.123,416.245 677,400C682.276,382.956 686.249,363.371 688,344C690.799,323.185 688.142,298.742 686,281C682.333,262.347 677.489,243.633 672,228C664.981,212.699 657.705,196.417 650,183C641.423,169.257 631.09,156.032 621,145C609.622,134.057 598.747,121.375 587,112C573.388,103.292 560.206,92.9162 546,86C532.232,77.4477 514.354,71.7682 499,66C481.71,60.97 461.992,57.1298 442,56C431.673,55.2904 420.107,54.8785 409.031,55.0938L409.031,55.0938ZM407.75,75.9375C409.494,75.6222 408.825,97.0591 411,100C415.752,108.783 421.125,118.63 428,124C434.927,130.607 441.395,139.36 451,142C458.026,148.508 471.5,150.255 480,154C491.446,156.088 500.415,162.34 509,166C517.752,170.782 527.514,176.24 538,178C552.358,178.36 566.187,178.186 577,175C589.609,174.075 595.379,164.624 601,158C609.247,156.055 593.282,173.507 589,175C581.38,180.914 566.871,181.626 555,182C540.501,182.965 527.773,180.472 520,176C510.337,172.128 500.874,166.371 492,163C481.955,159.51 471.045,155.2 461,153C451.402,149.064 442.555,142.69 435,138C428.54,130.461 419.906,125.092 415,116C408.481,108.985 404.006,98.239 405,85C406.307,78.5733 407.169,76.0426 407.75,75.9375L407.75,75.9375ZM399.844,76.25C411.513,75.5405 395.103,124.951 397,93C399.372,89.9912 396.101,80.5367 394,82C373.523,90.0154 374.754,84.4533 393,80C395.949,77.4693 398.177,76.3514 399.844,76.25L399.844,76.25ZM431.219,77.25C439.709,77.0315 448.95,78.923 454,82C455.097,85.8333 455.152,111.887 452,94C452.726,71.4898 452.289,104.864 442,99C397.491,97.8734 434.893,108.142 455,108C477.461,107.79 490.304,121.133 513,118C539.175,97.435 537.142,132.085 526,143C526.264,143.328 526.498,143.703 526.781,144C528.144,145.426 529.626,146.3 531.156,146.75C532.438,145.59 533.823,144.535 535.5,143.844C537.186,140.464 542.759,135.453 546,130C546.566,127.801 548.841,126.524 551.094,126.312C553.347,126.101 555.577,126.956 556,129C560.111,128.889 560.437,132.563 563,134C564.806,159.894 558.574,140.636 559,144C553.857,161.263 597.674,173.346 568,172C554.15,177.233 529.771,175.149 518.969,166.531C518.923,166.499 518.859,166.536 518.812,166.5C517.222,165.2 515.39,164.047 513.594,162.875C513.258,162.669 512.613,162.305 512.375,162.125C509.881,161.373 507.823,160.512 506.125,159.562C497.951,157.698 490.286,152.024 481,150C472.885,147.977 458.315,142.246 455.094,139.75C453.84,139.103 452.622,138.533 451.188,137.625C444.201,133.204 437.822,127.414 432.25,120.906C430.174,118.679 428.354,116.335 426.812,113.906C425.467,111.975 424.11,110.052 422.938,108.031C420.743,106.381 418.91,103.982 418,100C405.013,83.8174 417.065,77.6142 431.219,77.25L431.219,77.25ZM378.094,82.4375C379.679,82.4617 380.238,82.9069 379,84C375.822,97.7703 381.825,92.5427 364,93C353.2,94.3766 347.759,102.893 344,110C346.927,119.727 329.059,129.151 329,121C326.916,110.907 321.593,102.273 315,98C325.436,95.9148 325.552,110.45 334,113C346.315,115.085 347.474,92.5027 336,94C328.379,94.1165 351.077,89.7681 356,88C359.256,86.1351 373.337,82.3649 378.094,82.4375L378.094,82.4375ZM389.625,84.8438C391.809,85.0313 393.564,86.4863 393,90C397.693,96.3845 382.843,98.9713 384,91C381.167,87.7604 385.985,84.5312 389.625,84.8438L389.625,84.8438ZM485,86C494.994,88.671 504.222,92.1124 514,95C524.026,98.1052 535.278,107.724 515,102C507.593,100.866 532.73,107.109 513,109C514.734,116.8 504.769,98.8369 496,100C487.804,94.2932 478.384,94.2331 470,98C475.06,100.482 451.25,106.013 462,94C463.477,97.8351 474.642,95.8119 479,92C504.416,99.186 466.784,85.1102 485,86L485,86ZM335.281,98.0938C338.001,97.7538 340.621,99.3837 340,104C343.151,109.789 329.57,110.997 330,104C329.743,100.743 332.562,98.4337 335.281,98.0938L335.281,98.0938ZM369.125,98.7188C371.057,98.8873 373.026,99.3005 375,100C387.776,106.555 392.138,121.53 397,136C400.277,155.711 387.826,166.171 369,165C351.951,162.717 347.97,147.362 348,128C344.144,108.99 355.601,97.5389 369.125,98.7188L369.125,98.7188ZM314.406,102.312C317.429,102.74 329.241,120.082 326,131C324.24,147.238 320.146,161.147 315,174C308.955,185.552 300.013,195.654 291,203C283.308,213.306 273.933,221.935 268,234C260.276,244.275 251.993,253.995 241,261C229.084,267.083 218.347,274.349 200,274C177.881,271.845 176.009,257.684 197,270C217.047,272.049 209.345,246.343 219,238C224.044,225.045 229.831,212.829 238,203C243.963,190.964 253.369,182.367 261,172C269.931,162.933 280.581,155.579 290,147C296.664,140.885 320.119,132.279 313,126C303.96,134.958 290.404,139.406 282,149C270.865,155.863 263.619,166.621 254,175C245.793,184.39 237.163,194.805 231,205C224.097,216.095 217.815,227.817 213,241C212.308,252.905 202.611,277.665 193,261C188.875,247.152 199.717,233.289 203,221C208.718,209.121 216.536,197.894 222,187C230.301,177.303 234.428,163.427 247,158C254.205,147.207 263.722,138.72 274,131C283.011,122.013 296.432,117.43 307,110C317.882,114.635 319.893,132.717 315,147C310.485,160.483 306.939,174.941 298,184C291.088,195.086 280.475,202.477 272,212C266.207,224.205 258.834,234.836 250,244C243.705,254.901 226.441,257.723 220,266C233.365,261.367 244.498,254.5 254,246C261.579,235.581 269.545,225.544 276,214C284.014,204.016 293.101,195.099 302,186C310.176,176.579 315.859,163.217 318,149C322.519,135.669 322.786,113.186 314,105C313.467,103.009 313.711,102.214 314.406,102.312L314.406,102.312ZM366.031,102.375C356.646,103.651 349.846,115.276 353,125C353.212,141.453 354.278,157.057 367,161C386.137,164.038 395.855,153.217 393,138C388.691,125.644 385.199,112.466 376,105C372.57,102.672 369.156,101.95 366.031,102.375L366.031,102.375ZM460.656,103.625C470.341,103.361 487.146,107.173 495,112C488.862,111.468 470.609,104.884 457,104C458.047,103.787 459.272,103.664 460.656,103.625L460.656,103.625ZM371,110C380.78,112.402 385.325,127.23 387,139C387.769,158.419 376.034,105.721 381,133C380.27,138.174 374.278,133.47 375,131C368.321,114.021 362.95,133.262 363,124C354.337,102.257 391.446,124.931 371,110L371,110ZM543.906,111.281C545.216,111.015 546.29,113.373 547,120C543.126,117.567 530.149,147.171 529,140C533.906,136.48 539.977,112.079 543.906,111.281L543.906,111.281ZM403.219,114.219C408.52,115.121 413.741,127.803 416,132C418.492,138.655 433.584,153.448 421,155C416.651,144.489 404.509,131.719 413,152C421.851,162.439 436.081,153.662 425,142C413.033,124.753 430.962,140.123 435,146C443.22,151.778 452.15,156.851 462,161C472.773,163.517 488.378,173.979 466,167C456.386,162.616 447.388,157.611 439,152C424.784,138.391 430.054,149.703 440,157C446.681,163.39 459.514,166.994 466,171C455.201,177.917 486.833,171.909 488,181C498.505,183.354 497.854,207.792 482,203C472.594,203.511 500.712,196.134 488,185C481.859,177.647 462.543,181.595 470,195C488.121,206.094 460.366,200.548 464,187C448.758,194.304 456.78,199.371 471,202C480.397,206.602 490.901,210.101 498,217C505.301,223.697 514.672,228.329 520,237C529.854,241.359 533.408,253.659 540,260C543.397,270.601 548.288,279.713 551,291C554.311,301.688 556.036,313.965 556,328C556.485,342.483 554.403,354.404 551,365C547.447,375.446 542.825,384.826 539,395C533.145,403.143 529.122,413.127 520,418C512.988,424.986 506.482,432.483 498,438C489.711,443.709 480.756,448.749 471,453C460.605,456.604 449.528,459.53 437,461C423.629,460.372 407.431,462.567 397,459C384.737,457.264 374.566,453.425 365,449C355.564,444.437 344.77,441.229 339,433C330.35,427.652 321.766,422.233 317,413C315.545,410.81 313.991,408.717 312.469,406.594C311.953,406.421 311.441,406.149 311.094,405.531C311.066,405.481 311.059,405.425 311.031,405.375C310.565,404.411 309.918,403.229 309.375,402.188C306.087,397.621 302.841,393.012 300,388C296.8,384.943 288.626,356.184 291,371C294.664,380.137 297.655,389.95 301.844,398.562C297.068,393.935 279.418,396.969 281,408C277.627,420.662 276.44,390.682 269,390C261.387,384.159 253.395,367.333 265,378C260.201,372.937 264.114,367.224 258,355C258.615,352.884 257.302,354.781 257,338C264.311,334.407 268.077,314.137 261,310C256.639,331.079 255.61,300.25 248,299C232.63,291.202 249.985,287.563 230,285C217.038,280.787 204.466,288.882 200,293C190.472,297.47 183.173,304.175 184,319C192.99,339.362 187.867,324.327 177,328C178.153,322.267 173.625,291.307 181,298C193.356,300.833 204.646,283.857 191,278C174.787,271.777 200.358,279.95 210,279C221.183,281.938 229.865,274.857 240,271C249.807,266.808 258.032,261.031 265,254C273.127,251.756 276.051,236.257 285,233C291.046,225.048 294.911,214.909 302,208C311.807,203.808 320.783,198.782 322,186C323.233,183.504 304.175,210.425 315,191C319.7,181.701 324.803,172.802 327,161C328.264,153.584 332.213,122.022 332,150C331.442,160.887 326.702,182.075 342,174C343.221,152.373 340.906,156.984 352,168C362.04,170.729 365.884,184.288 382,178C392.981,178.262 399.794,159.442 404,170C408.946,165.118 428.724,167.494 441,167C464.871,170.294 437.666,159.8 428,162C413.121,160.411 395.426,168.783 406,150C407.624,138.548 402.78,125.99 398,118C399.679,114.936 401.452,113.918 403.219,114.219L403.219,114.219ZM335.344,130C336.292,129.883 337.498,131.318 339,135C341.061,142.985 341.465,186.025 335,165C331.994,160.364 331.233,130.507 335.344,130L335.344,130ZM278,139C272.394,138.13 267.969,145.435 263,148C268.897,146.363 277.002,142.739 278,139L278,139ZM163.906,149.906C163.389,150.476 162.785,150.759 162.188,150.781C161.806,150.796 161.438,150.686 161.094,150.531C160.717,151.009 160.383,151.528 160,152C156.009,159.507 150.093,166.918 147,174C142.941,181.94 138.387,189.388 135,198C131.639,206.137 127.037,214.862 126,224C121.434,231.432 119.685,241.686 118,252C116.648,257.389 113.274,285.186 117,268C119.539,258.54 120.171,247.169 123,238C125.879,229.381 128.879,219.054 132,212C134.292,202.293 139.035,195.034 143,187C147.253,179.755 150.747,169.922 155,164C157.714,159.046 160.823,154.493 163.906,149.906L163.906,149.906ZM491.625,167.188C493.212,167.445 494.75,168.313 496,170C491.884,165.008 485.858,171.275 483,176C481.719,171.163 486.869,166.414 491.625,167.188L491.625,167.188ZM607.938,174.312C609.115,174.554 610.225,175.398 611,177C614.841,183.203 606.554,188.971 602,184C600.198,178.269 604.405,173.589 607.938,174.312L607.938,174.312ZM358,176C347.372,176.583 333.646,181.536 328,190C337.293,185.184 350.213,179.425 358,176L358,176ZM594.906,182.812C595.859,182.773 599.766,188.185 604.219,190.625C589.25,190.729 580.146,197.428 570,201C563.364,206.802 554.319,221.528 560,237C560.603,240.878 562.73,244.984 561,245C551.258,236.388 553.839,246.512 550,228C542.635,212.398 571.176,197.307 556,200C554.254,202.333 550.218,204.667 550,207C544.011,226.646 545.225,209.781 549,202C537.865,219.423 532.602,202.407 519,198C507.835,187.182 518.135,223.876 523,225C529.993,234.928 538.776,244.549 543,256C551.177,264.744 553.865,280.46 556,294C556.397,295.239 548.814,271.257 545,263C538.098,252.981 529.452,243.223 522,235C513.339,226.83 505,218.328 494.875,211.625C498.322,211.605 508.696,193.901 500,192C507.419,187.218 524.541,198.162 541,195C557.112,198.226 573.955,193.434 586,191C588.753,189.674 592.441,186.992 596,188C594.689,184.213 594.43,182.832 594.906,182.812L594.906,182.812ZM478.094,183.875C482.743,183.772 487.871,185.721 487,189C488.454,195.345 473.058,199.084 472,191C469.274,186.132 473.444,183.975 478.094,183.875L478.094,183.875ZM419.844,190.906C412.868,190.85 406.269,191.152 402,192C389.598,193.597 379.727,197.729 369,201C359.186,205.184 349.758,209.759 341,215C335.387,222.921 323.165,225.92 321,236C327.305,228.306 336.534,223.533 344,217C352.703,211.704 361.812,206.81 372,203C381.925,198.926 392.981,195.98 405,194C415.656,190.356 435.564,196.232 440,192C434.176,191.377 426.82,190.963 419.844,190.906L419.844,190.906ZM600.438,196.438C610.76,195.563 621.015,199.142 621,211C624.275,230.389 607.673,235.108 600,246C589.163,257.15 565.247,251.164 564,236C556.982,217.126 570.574,205.882 584,202C588.019,199.082 594.244,196.962 600.438,196.438L600.438,196.438ZM327.25,197.969C327.032,197.991 326.625,198.302 326,199C312.987,201.987 314.926,209.223 322,217C321.553,212.433 328.778,197.814 327.25,197.969L327.25,197.969ZM604,201C590.97,201.577 576.385,207.53 569,215C560.568,226.306 567.446,244.298 578,248C597.503,250.582 601.025,235.7 611,230C620.621,223.626 620.99,199.402 604,201L604,201ZM594.594,205.125C597.093,204.938 599.956,205.671 603,208C611.997,217.554 603.371,232.499 594,235C591.584,245.01 569.208,248.765 572,238C569.741,227.574 570.246,210.249 588,214C582.981,214.589 587.096,205.687 594.594,205.125L594.594,205.125ZM639.656,210.438C641.886,210.082 646.897,211.905 650,217C654.377,224.609 665.387,229.054 659,242C659.043,254.623 659.98,266.354 664,275C664.379,287.286 665.054,299.281 666,311C666.061,323.368 668.596,335.376 665,346C663.718,357.383 661.625,367.959 659,378C655.877,387.542 653.95,398.284 650,407C645.922,415.778 644.483,428.923 638,434C626.511,442.791 637.451,427.222 641,421C644.038,411.373 648.788,403.454 651,393C654.633,383.967 657.505,374.171 659,363C661.389,352.723 661.754,340.419 663,329C663.289,316.046 662.979,303.687 661,293C661.154,280.181 658.001,270.665 656,260C658.761,239.344 641.915,258.148 646,248C665.033,240.112 647.56,240.165 639,246C628.132,249.646 626.625,258.381 632,269C634.946,278.719 636.625,289.71 637,302C638.799,312.866 637.512,326.823 638,339C636.456,350.121 635.354,361.689 632,371C629.478,381.143 627.53,391.865 623,400C619.997,409.662 614.447,416.789 612,427C614.745,436.92 626.45,437.884 635,442C632.995,446.584 613.63,439.766 612,434C604.453,428.881 602.763,417.903 599,409C596.182,400.116 592.181,388.404 595,377C596.219,365.554 598.505,355.17 601,345C600.213,335.628 601.63,321.333 601,309C601.826,297.161 604.949,287.614 608,278C612.619,269.953 615.881,260.546 622,254C627.369,246.704 635.064,241.729 646,240C663.703,238.118 640.105,229.002 646,217C637.979,213.327 637.427,210.793 639.656,210.438L639.656,210.438ZM304,215C302.333,218.261 319.27,216.609 322,221C324.668,216.738 311.182,214.938 304,215L304,215ZM634.719,220.812C635.988,220.936 637.197,221.609 638,223C642.716,228.445 633.227,234.565 630,229C626.463,224.917 630.91,220.441 634.719,220.812L634.719,220.812ZM308.844,222.594C308.015,222.611 307.071,223.031 306,224C311.215,223.585 311.936,232.228 310,236C308.456,238.534 304.35,240.799 302,241C287.887,228.521 294.922,246.855 305,248C309.724,246.724 311.786,242.785 315,240C317.222,237.963 317.5,231.454 316,230C316.116,227.466 313.885,222.201 314,228C314.818,241.936 314.648,222.472 308.844,222.594L308.844,222.594ZM582.625,226.438C580.466,226.431 578.412,226.885 577,228C572.636,236.439 584.964,227.998 590,233C596.489,230.569 589.101,226.457 582.625,226.438L582.625,226.438ZM636.062,238.688C639.653,238.85 620.181,244.982 620,250C613.432,256.097 610.489,265.824 605,273C601.975,282.64 596.706,290.041 596,302C592.996,311.662 593.818,325.153 592,336C584.383,340.01 589.885,318.614 591,311C591.668,299.002 594.961,289.627 598,280C603.005,272.34 606.075,262.741 612,256C616.304,247.638 618.526,237.192 633,239C634.578,238.759 635.55,238.664 636.062,238.688L636.062,238.688ZM318,239C311.18,247.07 301.045,253.425 300,266C305.375,256.485 313.148,247.768 318,239L318,239ZM287,240C280.283,242.83 273.895,258.585 271,269C266.78,279.895 257.737,289.75 260,304C266.365,304.076 264.517,279.378 273,274C276.634,261.635 282.801,251.799 287,240L287,240ZM717.594,253.5C716.906,253.035 720.539,267.892 721,273C722.254,283.745 724.25,293.751 724,306C722.992,317.917 724.402,326.422 724,340C722.358,350.535 721.607,363.741 720,373C717.477,382.476 715.983,392.985 713,402C709.595,410.772 708.266,423.4 704,430C701.088,439.087 696.192,446.193 693,455C688.649,462.827 683.94,472.078 679,478C676.106,487.104 669.342,492.343 665,500C659.433,506.61 654.429,515.563 648,520C643.825,527.824 636.499,532.5 631,539C626.658,546.835 616.555,550.689 612,557C604.615,561.614 599.236,568.237 591,572C584.56,577.737 574.92,582.054 568,586C560.073,590.071 553.429,595.43 544,598C535.504,601.682 526.126,606.257 517,608C508.744,611.743 498.489,613.49 489,616C477.891,616.889 469.948,620.953 458,621C447.379,622.378 437.55,624.547 425,624C413.023,623.8 398.142,624.72 389,623C377.694,622.308 367.297,620.702 357,619C347.673,616.149 337.199,612.671 328,611C318.644,608.357 309.53,605.465 302,601C292.078,598.745 283.504,593.362 276,590C269.216,584.785 259.91,582.093 254,576C246.564,571.437 239.293,566.706 232,562C226.975,555.026 218.204,551.795 213,545C200.656,530.622 210.851,550.276 217,552C222.617,558.382 229.478,563.523 237,568C243.212,573.965 252.153,578.981 258,584C267.232,586.766 272.768,593.229 282,596C289.329,600.848 300.1,604.038 307,608C315.659,611.34 325.259,613.742 334,617C343.797,619.201 353.117,621.881 363,624C373.548,625.451 384.823,626.182 395,628C407.177,628 421.134,628 432,628C442.901,626.902 454.104,626.099 464,624C475.275,623.098 486.348,620.21 495,618C505.808,616.809 513.641,612.639 524,611C532.207,607.03 543.104,603.974 550,600C558.335,596.337 566.473,592.471 574,588C581.888,583.711 590.666,578.528 596,573C603.822,568.823 610.353,563.352 616,557C624.26,553.083 630.779,545.645 636,540C643.275,535.276 646.434,526.432 653,521C657.963,513.786 664.284,506.15 669,500C673.67,492.671 679.285,486.283 683,478C689.072,472.49 688.812,467.673 691.594,465.406C692.981,462.143 694.52,459.31 696.438,457C698.661,453.449 701.422,449.089 701,446C704.9,437.902 708.656,429.655 711,420C714.109,410.932 717.725,400.591 719,391C721.83,381.831 722.461,370.46 725,361C725.584,349.406 728.156,338.022 727,326C727.589,313.413 726.545,302.454 726,291C723.807,281.016 724.015,266.851 720,260C718.533,255.511 717.823,253.653 717.594,253.5L717.594,253.5ZM625,262C618.649,263.452 609.948,281.648 607,293C603.325,307.598 603.853,327.812 604,345C609.063,331.79 606.317,309.357 610,296C609.666,277.804 627.6,272.838 625,262L625,262ZM671.438,262.562C674.199,262.887 676.888,264.684 675,269C675.003,281.155 670.432,258.682 667,264C667.057,263.392 667.79,262.932 668.812,262.688C669.58,262.504 670.517,262.454 671.438,262.562L671.438,262.562ZM637.906,272.656C638.769,270.735 643.272,296.496 642,302C643.49,316.103 643.301,334.164 642,348C639.351,360.919 636.202,374.896 633,386C630.61,399.608 623.382,408.384 620,421C609.267,435.841 623.921,405.289 625,401C629.988,389.99 634.058,378.048 637,365C639.698,352.13 641.332,336.638 642,323C642.017,306.985 640.147,292.851 638,279C637.695,275.02 637.711,273.101 637.906,272.656L637.906,272.656ZM293,278C288.906,286.571 286.938,297.272 285,308C283.378,318.08 283.57,333.985 285,344C287.281,333.616 284.472,318.137 287,308C288.216,297.528 292.734,286.8 293,278L293,278ZM188.969,281.625C190.308,281.793 191.471,282.522 192,284C196.429,290.203 186.529,295.971 184,291C179.296,285.753 184.949,281.121 188.969,281.625L188.969,281.625ZM253,287C248.212,286.763 258.386,301.568 257,308C260.881,306.156 255.119,287.65 253,287L253,287ZM229.25,293.906C241.541,294.769 250.477,301.405 252,313C255.777,331.41 243.708,342.075 228,341C213.767,336.569 195.251,336.418 190,323C184.655,302.964 198.552,295.044 216,295C220.697,293.976 225.153,293.619 229.25,293.906L229.25,293.906ZM227.594,297.656C224.184,297.5 220.599,297.912 217,299C202.825,298.776 188.227,305.873 195,321C199.034,332.534 215.415,333.28 226,337C244.012,339.014 251.073,330.071 249,312C246.452,303.762 237.822,298.126 227.594,297.656L227.594,297.656ZM223,300C235.154,299.844 242.571,304.43 246,313C250.685,325.299 241.498,335.689 230,330C221.411,326.59 208.218,327.781 206,318C201.201,305.231 214.077,300.722 223,300L223,300ZM557.562,300.281C557.938,300.34 558.7,301.989 560,306C557.776,305.285 577.837,315.46 573,317C571.799,320.838 557.692,322.544 578,326C571.647,327.384 562.536,328.79 564,334C572.863,328.459 593.032,336.087 571,335C558.394,330.429 560.102,348.586 567,353C574.33,346.353 552.359,372.171 560,354C557.33,344.19 560.494,329.274 559,321C558.639,314.164 556.435,300.106 557.562,300.281L557.562,300.281ZM184.969,335.25C187.012,334.879 189.101,335.573 190,338C194.294,343.864 183.753,350.054 181,343C178.3,339.454 181.565,335.864 184.969,335.25L184.969,335.25ZM573.281,337.469C576.882,337.91 579.061,340.016 575,344C590.759,331.437 575.572,355.794 566,348C557.357,340.608 567.279,336.734 573.281,337.469L573.281,337.469ZM198,340C202.352,340.981 206.353,342.315 210,344C233.707,353.57 199.801,343.673 193,349C207.717,344.917 223.033,357.801 236,364C249.549,371.782 258.293,384.376 268,396C273.931,416.102 290.955,415.139 279,429C269.326,424.101 281.2,418.491 266,404C258.616,390.053 248.258,379.069 236,370C222.886,361.783 213.103,350.228 189,353C186.34,352.952 175.846,357.111 181,353C193.675,355.397 190.735,340.829 198,340L198,340ZM587,342C596.034,346.307 589.098,361.102 589,369C587.457,373.957 588.621,406.09 586,384C593.474,368.828 569.955,364.542 584,367C589.057,364.762 591.111,347.459 587,342L587,342ZM709,342C705.828,355.073 705.031,372.04 701,383C700.017,398.261 691.803,407.809 690,421C684.884,432.129 680.591,445.6 674,454C669.332,465.576 660.906,474.916 656,485C664.076,476.832 671.237,466.231 676,456C682.269,446.024 687.178,433.165 692,423C695.268,410.023 701.297,398.296 703,385C705.475,371.231 708.292,356.275 709,342L709,342ZM248.688,350.719C253.433,350.861 256.432,352.19 253,356C253.14,359.635 252.992,360.129 252.469,359.5C252.999,361.016 252.16,363.117 249,366C275.582,358.195 242.238,376.888 240,359C222.29,357.78 245.734,353.603 251.438,358.125C249.353,355.006 244.483,348.432 232,354C228.008,353.549 240.776,350.478 248.688,350.719L248.688,350.719ZM192.875,355.594C202.634,355.501 211.633,358.998 216,363C225.193,367.341 233.567,374.196 240,380C247.482,386.053 254.514,394.241 258,403C262.661,411.873 268.065,421.69 272,430C279.372,436.162 285.704,445.047 291,452C297.385,459.15 301.306,470.449 304,480C306.232,490.047 308.956,506.934 305,516C301.634,521.731 291.059,536.754 285,528C284.228,519.407 266.976,518.04 264,510C255.135,505.331 249.311,495.93 242,491C233.612,487.277 225.114,482.322 222.656,473.312C226.247,479.898 242.283,487.596 235,482C225.721,477.744 224.836,463.409 217,459C208.779,450.239 207.204,447.487 203,436C199.441,426.025 193.382,416.859 189,409C192.254,395.003 177.358,386.479 186,377C195.254,378.164 207.975,377.788 195,367C206.418,357.932 203.92,383.919 209,388C211.311,399.224 217.069,408.689 220,418C224.787,426.747 230.094,436.661 235,444C240.377,452.157 247.055,460.696 253,467C259.999,473.535 267.001,481.754 274,487C281.315,493.22 289.947,499.808 297,505C301.928,514.565 286.988,521.382 287,529C295.106,524.801 304.167,515.246 302,505C296.032,497.434 284.889,493.356 279,487C272.527,479.938 264.389,472.853 258,467C252.938,458.528 244.119,452.126 240,444C235.281,435.184 227.922,427.316 225,418C220.691,408.775 215.399,398.846 213,389C206.604,381.862 211.382,361.863 200,361C192.06,360.39 162.867,364.302 183,357C186.277,356.06 189.622,355.621 192.875,355.594L192.875,355.594ZM557.562,357.75C558.653,356.989 558.889,360.147 557,368C579.354,363.65 564.802,369.447 558,377C554.227,373.02 558.055,362.461 552,382C544.214,402.235 549.761,378.281 553,371C554.529,363.191 556.472,358.511 557.562,357.75L557.562,357.75ZM690,362C685.921,379.253 682.901,397.57 676,412C670.945,428.276 663.659,442.328 656,456C649.213,470.544 639.486,482.155 630,494C621.219,506.55 609.34,516.009 599,527C610.797,517.466 621.943,507.275 631,495C641.452,484.121 650.043,471.378 658,458C664.932,443.601 672.704,430.035 678,414C683.795,398.464 688.196,381.527 690,362L690,362ZM239,384C242.913,391.287 251.193,400.047 254,411C258.689,420.976 264.284,430.051 271,438C267.218,430.582 262.209,418.551 257,410C253.144,399.191 247.033,390.633 239,384L239,384ZM291.281,399.312C294.414,399.13 297.957,401.834 301,408C305.71,424.86 281.442,421.389 284,408C285.426,402.565 288.148,399.495 291.281,399.312L291.281,399.312ZM307.438,407.969C307.602,407.715 307.778,407.7 308,408C311.174,414.121 305.979,419.571 301.969,421.375C306.074,418.885 306.481,409.443 307.438,407.969L307.438,407.969ZM312,416.75C317.609,417.433 325.036,435.143 334,436C343.424,439.767 363.729,461.352 347,451C339.424,460.643 319.742,450.059 311,443C308.001,441.264 303.5,438.73 303,436C299.381,431.977 305.689,429.976 304,430C287.388,426.879 297.486,427.548 307,423C308.452,418.19 310.13,416.523 312,416.75L312,416.75ZM563.625,420.562C569.229,420.902 574.801,422.066 579,424C572.326,423.029 555.007,424.926 551,431C542.655,435.148 539.668,448.596 536,449C534.285,434.429 540.229,425.785 548,422C552.384,420.703 558.021,420.223 563.625,420.562L563.625,420.562ZM300.938,421.781C300.19,422.005 299.503,422.129 299,422C299.737,422.129 300.342,421.944 300.938,421.781L300.938,421.781ZM567.781,427.031C569.74,427.1 571.804,427.401 574,428C585.478,434.52 593.772,444.23 599,457C603.574,474.334 584.625,483.555 570,477C558.681,470.321 542.478,468.52 543,450C546.089,438.196 554.069,426.551 567.781,427.031L567.781,427.031ZM567,431C553.076,431.428 544.186,442.969 547,456C551.858,466.71 565.741,469.953 575,475C592.123,479.364 600.646,462.14 593,452C585.24,444.192 581.809,430.497 567,431L567,431ZM569.438,435.062C578.489,436.058 587.062,442.037 586,452C584.964,469.005 553.423,463.043 550,448C550.86,438.049 560.386,434.067 569.438,435.062L569.438,435.062ZM218.281,440.812C216.426,440.83 214.837,440.901 214,441C209.724,443.918 226.816,442.227 228,444C231.712,441.307 223.846,440.761 218.281,440.812L218.281,440.812ZM613.906,448C615.948,447.918 617.75,449.059 618,452C621.304,457.913 610.509,461.063 608,456C606.457,451.679 610.503,448.141 613.906,448L613.906,448ZM373.75,450.156C375.924,450.937 378.185,451.641 380.438,452.344C380.02,452.161 379.605,452.04 379.188,451.844C378.471,451.615 377.746,451.383 377.031,451.125C376.433,450.964 375.846,450.775 375.25,450.594C374.743,450.485 374.253,450.285 373.75,450.156L373.75,450.156ZM225,459C224.406,462.287 230.604,468.268 232,471C232.799,467.508 228.467,459.665 225,459L225,459ZM632.562,459.875C633.146,460.242 633.094,462.031 632,466C634.514,464.939 616.972,483.757 620,473C623.23,470.337 630.812,458.771 632.562,459.875L632.562,459.875ZM238.406,460.5C237.722,460.41 236.922,460.557 236,461C232.037,461.453 238.537,468.425 237,475C242.221,473.245 243.196,461.128 238.406,460.5L238.406,460.5ZM464.688,462.469C466.384,462.519 468.151,462.693 470,463C476.25,470.349 445.259,458.175 447,472C441.064,464.901 435.107,483.465 431,476C433.101,470.465 415.825,465.326 437,468C444.397,467.355 452.805,462.115 464.688,462.469L464.688,462.469ZM459,465.875C461.197,465.819 463.372,466.383 465,468C475.471,477.449 457.316,463.289 452,471C445.541,471.746 452.409,466.042 459,465.875L459,465.875ZM354,471C365.304,471.873 366.699,484.435 375,487C371.353,488.627 362.286,478.031 350,480C340.994,473.616 327.152,492.681 329,484C335.318,477.653 341.299,470.968 354,471L354,471ZM535.094,471.219C535.343,471.269 535.647,471.525 536,472C544.082,489.636 538.595,479.932 518,482C498.001,481.999 484.214,488.22 467,491C454.275,498.273 432.784,496.786 420,504C406.831,510.829 394.845,518.839 385,529C363.497,545.756 396.199,519.794 395,514C407.128,506.13 419.639,498.637 436,495C454.691,493.693 467.999,486.997 485,484C495.072,479.133 527.784,478.332 531,480C533.861,479.765 533.35,470.868 535.094,471.219L535.094,471.219ZM459.656,471.906C461.19,472.062 462.499,472.712 463,474C469.385,479.936 456.573,484.194 454,480C448.284,475.432 455.055,471.439 459.656,471.906L459.656,471.906ZM354.344,482.531C365.341,483.373 374.512,490.755 375,501C376.038,516.756 364.264,525.068 357,535C344.466,544.713 324.492,535.432 326,521C328.99,505.991 327.756,486.755 343,484C346.821,482.69 350.678,482.251 354.344,482.531L354.344,482.531ZM349.25,485.844C339.46,486.698 332.937,493.355 333,504C328.511,515.332 327.725,534.937 341,535C359.063,537.731 359.738,523.07 367,515C376.989,506.831 370.409,487.553 360,487C356.13,485.933 352.517,485.563 349.25,485.844L349.25,485.844ZM520,487C538.639,487.25 560.718,488.986 568,503C571.891,504.509 571.619,512.459 574,514C582.371,524.728 562.481,512.215 562,501C546.748,488.584 533.379,510.928 520,515C503.754,520.752 490.237,529.243 471,532C453.046,536.043 431.616,536.618 411,538C383.809,539.001 425.297,522.105 430,518C440.605,516.221 428.67,515.478 427,518C410.595,520.456 444.865,510.947 451,511C473.585,511.587 484.006,500 503,497C516.587,492.783 561.343,494.069 518,490C497.574,491.571 483.476,499.479 467,505C448.262,508.26 426.154,508.156 413,517C400.628,526.626 386.416,534.419 381,551C374.758,581.875 396.718,544.701 415,557C421.068,556.332 425.955,559.127 430,559C417.526,560.293 384.851,559.5 417,562C438.708,561.71 458.424,559.422 476,555C493.769,550.772 510.189,545.186 525,538C538.84,529.842 554.501,523.499 566,513C559.935,525.824 542.307,532.012 529,540C490.795,559.331 556.779,528.526 530,543C516.511,551.509 494.729,551.732 480,559C462.08,563.078 442.362,565.365 422,567C413.669,578.82 374.66,549.799 386,578C381.091,578.399 365.588,552.926 352,562C343.272,574.893 337.251,575.193 317,565C309.686,562.404 275.63,539.476 294,546C292.546,546.839 265.603,511.513 283,529C301.876,536.006 296.708,531.165 319,537C321.818,523.323 338.262,555.917 353,551C352.865,556.534 359.948,557.13 364,557C380.14,568.535 374.775,562.434 379,543C387.642,529.995 400.479,519.922 414,513C426.647,503.649 450.218,505.216 467,500C483.96,494.962 498.062,487.06 520,487L520,487ZM581.062,487.844C582.437,488.042 583.585,488.734 584,490C586.763,494.921 578.091,501.371 575,496C570.649,490.981 576.938,487.244 581.062,487.844L581.062,487.844ZM349.219,489.125C350.542,488.993 351.893,489.005 353.219,489.125C359.581,489.72 365.535,493.294 367,500C369.194,513.629 343.194,533.243 337,510C331.651,497.212 339.95,490.048 349.219,489.125L349.219,489.125ZM572.812,500.906C576.171,502.454 588.791,504.751 588,512C586.483,509.471 576.232,504.583 572.812,500.906L572.812,500.906ZM548.875,501.344C549.696,501.581 547.536,503.757 540,509C528.797,515.129 517.652,521.32 505,526C494.663,532.583 479.014,535.34 467,539C453.449,542.37 435.764,543.09 421,544C399.964,546.617 380.316,540.329 410,542C421.287,540.227 444.399,542.505 456,538C471.29,536.369 485.509,532.184 497,528C508.07,522.149 521.985,517.66 531,511C537.855,505.928 547.502,500.941 548.875,501.344L548.875,501.344ZM632,515C622.336,520.904 615.852,531.546 608,538C619.985,534.418 624.205,521.511 632,515L632,515ZM314.562,524.375C316.286,524.462 317.745,525.769 318,529C320.956,534.823 309.311,537.392 308,531C308.076,527.487 311.691,524.23 314.562,524.375L314.562,524.375ZM598,528C588.363,535.96 577.189,543.831 567,550C556.473,556.805 545.195,562.864 534,569C547.479,564.882 558.111,556.474 569,551C579.561,544.229 590.215,537.547 598,528L598,528ZM362.094,542.406C364.585,542.44 366.868,544.341 366,548C369.915,553.401 354.016,556.002 357,548C356.904,544.205 359.603,542.368 362.094,542.406L362.094,542.406ZM313.281,543.969C312.869,545.008 335.873,552.959 342,554C354.018,552.431 321.368,545.82 315,544C313.867,543.826 313.34,543.824 313.281,543.969L313.281,543.969ZM529,558C519.978,564.003 501.886,567.629 490,572C499.572,564.083 518.183,560.975 529,558L529,558ZM308,570C305.512,572.213 333.765,582.383 347,585C349.644,582.631 317.713,576.143 308,570L308,570ZM376.406,579.25C382.624,579.254 394.203,580.173 399,582C434.667,581.441 395.142,586.058 386,582C369.334,580.161 370.193,579.246 376.406,579.25L376.406,579.25Z" style="fill: url(#gradient-2);"/>
  </g>
  <g id="SvgjsG5447" featurekey="nameFeature-0" transform="matrix(0.793762, 0, 0, 1.228868, -1.939875, -8.269437)" fill="url(#SvgjsLinearGradient5461)" style="">
    <path d="M27.888 16.95 c2.9747 0 7.4 1.8319 7.4 6.8776 s-4.1128 6.8776 -6.8776 6.8776 l-20.344 0 l-0.033476 9.0684 l-4.6952 -0.017539 l0.075588 -20.455 l0 -2.3514 l0.0086328 0 l0 -0.0086328 l2.3477 0.0086328 l22.118 0 z M29.711 25.647 c0.43632 -0.24144 0.8826 -0.64608 0.88236 -1.819 c0 -0.94328 -0.31914 -1.4539 -1.139 -1.8214 c-0.745 -0.33402 -1.5585 -0.36098 -1.5661 -0.36098 l-19.779 0 l0 4.3645 l20.281 0 c0.2048 -0.0070704 0.81636 -0.08422 1.3204 -0.36305 z M51.311 15.421 l18.353 24.38 l-5.9015 0 l-5.132 -6.7948 l-14.639 0 l-5.0572 6.7948 l-5.8354 0 z M47.512 28.311 l7.5966 0 l-3.7984 -5.0644 z M106.374 16.974 l0.083516 11.4 c0.034258 2.5224 -0.98356 4.9712 -2.8664 6.896 c-1.9964 2.0406 -5.8816 4.484 -13.054 4.5368 c-0.069572 0.0005078 -0.13941 0.00078124 -0.20848 0.00078124 c-5.4292 0 -9.9632 -1.5595 -12.785 -4.402 c-1.9399 -1.954 -2.9907 -4.4436 -2.9611 -7.0128 l-0.083984 -11.384 l4.6952 -0.034805 l0.084492 11.433 l-0.00027344 0.025625 c-0.019375 1.3246 0.53336 2.5915 1.598 3.664 c1.9603 1.9747 5.3772 3.043 9.6272 3.014 c4.3352 -0.031914 7.7912 -1.1416 9.732 -3.1251 c1.0183 -1.0408 1.5467 -2.2692 1.5279 -3.553 l0 -0.016758 l-0.08422 -11.407 z M117.87400000000001 35.238 l27.18 0 l0 4.6954 l-31.875 0 l0 -22.815 l4.6954 0 l0 18.119 z M158.3824 14.504999999999999 l-2.0408 8.414 l-4.5628 -1.1067 l2.0408 -8.414 z M170.676 22.009 c-0.43632 0.24117 -0.88236 0.64612 -0.88236 1.8193 c0 0.91448 0.29558 1.4144 1.0547 1.7822 c0.76772 0.37195 1.6239 0.39914 1.6671 0.4002 l17.067 0.06672 c2.9656 0 7.3912 1.8316 7.3912 6.8776 s-4.1128 6.8776 -6.8776 6.8776 l-24.997 0 l0 -4.6954 l24.977 0 c0.2048 -0.0070704 0.81636 -0.08422 1.3204 -0.36305 c0.43656 -0.24144 0.88256 -0.64636 0.88256 -1.8193 c0 -0.91448 -0.29558 -1.4144 -1.0547 -1.7822 c-0.7654 -0.37094 -1.6208 -0.39894 -1.6686 -0.40024 l-17.056 -0.07586 l0 0.0091406 c-2.975 0 -7.4008 -1.8316 -7.4008 -6.8776 s4.1128 -6.8776 6.8776 -6.8776 l24.997 0 l0 4.6954 l-24.976 0 c-0.20457 0.0070704 -0.81668 0.08422 -1.321 0.36305 z M253.214 24.085 c0 2.0163 -0.65756 3.518 -1.6228 4.5964 c0.97048 1.0675 1.6226 2.5284 1.6226 4.4636 c0 5.046 -4.1128 6.8776 -6.8776 6.8776 l-24.997 0 l0 -22.815 l24.474 0 c2.975 0 7.4008 1.8316 7.4008 6.8776 z M247.636 34.9636 c0.43632 -0.24144 0.88232 -0.64636 0.88204 -1.8193 c0 -0.94328 -0.31938 -1.4539 -1.1389 -1.8214 c-0.745 -0.33402 -1.5585 -0.36098 -1.5661 -0.36098 l-19.779 0 l0 4.3645 l20.281 0 c0.2048 -0.0067968 0.81664 -0.083944 1.3207 -0.36277 z M247.636 25.904 c0.43632 -0.24144 0.88232 -0.64608 0.88232 -1.8193 c0 -0.94328 -0.31938 -1.4539 -1.1389 -1.8214 c-0.745 -0.33402 -1.5585 -0.36098 -1.5661 -0.36098 l-19.779 0 l0 4.3645 l20.281 0 c0.2048 -0.0067968 0.81664 -0.083944 1.3207 -0.36277 z M263.9076 40.04922 l-4.6491 0 l0 -22.591 l4.6491 0 l0 22.591 z M302.11199999999997 35.238 l0.069492 4.6488 l-2.3241 0.034805 c-0.36098 0.005508 -0.76928 0.011797 -1.2148 0.011797 c-3.2182 0 -8.3796 -0.31965 -11.644 -3.536 c-1.5507 -1.5276 -2.4884 -3.4984 -2.8028 -5.8728 c-1.7086 0.24875 -3.5884 0.38398 -5.6452 0.38398 l-3.2821 0 l0 8.9704 l-4.6491 0 l0 -22.59 l4.6491 0 l0 8.9707 l3.2821 0 c9.5164 0 14.496 -3.2504 14.496 -6.4616 l0 -2.3247 l4.6491 0 l0 2.3244 c0 3.8217 -2.8274 7.6668 -8.938 9.6784 c0.12426 1.5509 0.61892 2.7377 1.5041 3.6098 c2.3304 2.2956 7.1908 2.2229 9.5268 2.1878 z M340.77399999999994 21.902 l-27.18 0.000039062 l0 4.3726 l18.128 0.0675 l-0.017266 4.6956 l-18.111 -0.0675 l0 4.3564 l27.18 0 l0 4.6954 l-31.875 0 l0 -22.815 l31.875 0 l0 4.6951 z M353.03599999999994 22.009 c-0.43632 0.24117 -0.88236 0.64612 -0.88236 1.8193 c0 0.91448 0.29558 1.4144 1.0547 1.7822 c0.76772 0.37195 1.6239 0.39914 1.6671 0.4002 l17.067 0.06672 c2.9656 0 7.3912 1.8316 7.3912 6.8776 s-4.1128 6.8776 -6.8776 6.8776 l-24.997 0 l0 -4.6954 l24.977 0 c0.2048 -0.0070704 0.81636 -0.08422 1.3204 -0.36305 c0.43656 -0.24144 0.88256 -0.64636 0.88256 -1.8193 c0 -0.91448 -0.29558 -1.4144 -1.0547 -1.7822 c-0.7654 -0.37094 -1.6208 -0.39894 -1.6686 -0.40024 l-17.056 -0.07586 l0 0.0091406 c-2.975 0 -7.4008 -1.8316 -7.4008 -6.8776 s4.1128 -6.8776 6.8776 -6.8776 l24.997 0 l0 4.6954 l-24.976 0 c-0.20457 0.0070704 -0.81668 0.08422 -1.321 0.36305 z" style="fill: rgb(53, 92, 97);"/>
  </g>
  <path d="M 98.13231658935547 66.07020568847656 L 102.35985565185547 66.07020568847656 L 102.35985565185547 62.23622131347656 L 103.83885955810547 62.23622131347656 L 103.83885955810547 72.03700256347656 L 102.35985565185547 72.03700256347656 L 102.35985565185547 67.46034240722656 L 98.13231658935547 67.46034240722656 L 98.13231658935547 72.03700256347656 L 96.65331268310547 72.03700256347656 L 96.65331268310547 62.23622131347656 L 98.13231658935547 62.23622131347656 Z M 114.73832702636719 69.65663146972656 L 110.54252624511719 69.65663146972656 L 109.45072937011719 72.03700256347656 L 107.85746765136719 72.03700256347656 L 112.70707702636719 61.62049865722656 L 117.38529968261719 72.03700256347656 L 115.76664733886719 72.03700256347656 Z M 114.13529968261719 68.26649475097656 L 112.68168640136719 64.93397521972656 L 111.15824890136719 68.26649475097656 Z M 121.40385437011719 72.03700256347656 L 121.40385437011719 61.56971740722656 L 128.5513153076172 69.04725646972656 L 128.5513153076172 62.23622131347656 L 130.0303192138672 62.23622131347656 L 130.0303192138672 72.63368225097656 L 122.88285827636719 65.17518615722656 L 122.88285827636719 72.03700256347656 Z M 135.17149353027344 72.03700256347656 L 135.17149353027344 62.23622131347656 L 137.22813415527344 62.23622131347656 Q 138.70713806152344 62.23622131347656 139.56407165527344 62.52821350097656 Q 140.48448181152344 62.81385803222656 141.23350524902344 63.49940490722656 Q 142.75059509277344 64.88319396972656 142.75059509277344 67.13661193847656 Q 142.75059509277344 69.39637756347656 141.17002868652344 70.79286193847656 Q 140.37657165527344 71.49110412597656 139.50694274902344 71.76405334472656 Q 138.69444274902344 72.03700256347656 137.20274353027344 72.03700256347656 Z M 136.65049743652344 70.64686584472656 L 137.31700134277344 70.64686584472656 Q 138.31358337402344 70.64686584472656 138.97373962402344 70.43739318847656 Q 139.63389587402344 70.21522521972656 140.16709899902344 69.73280334472656 Q 141.25889587402344 68.73622131347656 141.25889587402344 67.13661193847656 Q 141.25889587402344 65.52430725097656 140.17979431152344 64.52137756347656 Q 139.20860290527344 63.62635803222656 137.31700134277344 63.62635803222656 L 136.65049743652344 63.62635803222656 Z M 159.71302795410156 72.03700256347656 L 159.71302795410156 62.23622131347656 L 161.18568420410156 62.23622131347656 Q 162.16957092285156 62.23622131347656 162.75355529785156 62.38856506347656 Q 163.34388732910156 62.54090881347656 163.75013732910156 62.90272521972656 Q 164.16273498535156 63.27723693847656 164.40394592285156 63.83583068847656 Q 164.65150451660156 64.40077209472656 164.65150451660156 64.97840881347656 Q 164.65150451660156 66.03211975097656 163.84535217285156 66.76210021972656 Q 164.62611389160156 67.02870178222656 165.07679748535156 67.69520568847656 Q 165.53382873535156 68.35536193847656 165.53382873535156 69.23133850097656 Q 165.53382873535156 70.38026428222656 164.72132873535156 71.17372131347656 Q 164.23255920410156 71.66249084472656 163.62318420410156 71.85292053222656 Q 162.95668029785156 72.03700256347656 161.95375061035156 72.03700256347656 Z M 161.19203186035156 66.44471740722656 L 161.65541076660156 66.44471740722656 Q 162.48060607910156 66.44471740722656 162.86463928222656 66.07972717285156 Q 163.24867248535156 65.71473693847656 163.24867248535156 65.00379943847656 Q 163.24867248535156 64.31190490722656 162.85511779785156 63.95326232910156 Q 162.46156311035156 63.59461975097656 161.71253967285156 63.59461975097656 L 161.19203186035156 63.59461975097656 Z M 161.19203186035156 70.64686584472656 L 162.10609436035156 70.64686584472656 Q 163.10902404785156 70.64686584472656 163.57875061035156 70.25331115722656 Q 164.07386779785156 69.82801818847656 164.07386779785156 69.17420959472656 Q 164.07386779785156 68.53944396972656 163.59779357910156 68.10780334472656 Q 163.13441467285156 67.68251037597656 161.94105529785156 67.68251037597656 L 161.19203186035156 67.68251037597656 Z M 171.673828125 62.23622131347656 L 171.673828125 68.13954162597656 Q 171.673828125 69.40272521972656 172.08642578125 69.98670959472656 Q 172.7021484375 70.83094787597656 173.8193359375 70.83094787597656 Q 174.94287109375 70.83094787597656 175.55859375 69.98670959472656 Q 175.97119140625 69.42176818847656 175.97119140625 68.13954162597656 L 175.97119140625 62.23622131347656 L 177.4501953125 62.23622131347656 L 177.4501953125 68.54579162597656 Q 177.4501953125 70.09461975097656 176.4853515625 71.09754943847656 Q 175.39990234375 72.21473693847656 173.8193359375 72.21473693847656 Q 172.23876953125 72.21473693847656 171.15966796875 71.09754943847656 Q 170.19482421875 70.09461975097656 170.19482421875 68.54579162597656 L 170.19482421875 62.23622131347656 Z M 184.07130432128906 62.23622131347656 L 184.07130432128906 72.03700256347656 L 182.59230041503906 72.03700256347656 L 182.59230041503906 62.23622131347656 Z M 190.7026824951172 62.23622131347656 L 190.7026824951172 70.64686584472656 L 193.5845184326172 70.64686584472656 L 193.5845184326172 72.03700256347656 L 189.2236785888672 72.03700256347656 L 189.2236785888672 62.23622131347656 Z M 200.1703643798828 63.62635803222656 L 200.1703643798828 72.03700256347656 L 198.6913604736328 72.03700256347656 L 198.6913604736328 63.62635803222656 L 196.4379425048828 63.62635803222656 L 196.4379425048828 62.23622131347656 L 202.4174346923828 62.23622131347656 L 202.4174346923828 63.62635803222656 Z M 225.76797485351562 62.76307678222656 L 225.76797485351562 64.51502990722656 Q 224.48574829101562 63.44227600097656 223.11465454101562 63.44227600097656 Q 221.60391235351562 63.44227600097656 220.56924438476562 64.52772521972656 Q 219.52822875976562 65.60682678222656 219.52822875976562 67.16835021972656 Q 219.52822875976562 68.71083068847656 220.56924438476562 69.77088928222656 Q 221.61026000976562 70.83094787597656 223.12100219726562 70.83094787597656 Q 223.90176391601562 70.83094787597656 224.44766235351562 70.57704162597656 Q 224.75234985351562 70.45008850097656 225.07925415039062 70.23426818847656 Q 225.40615844726562 70.01844787597656 225.76797485351562 69.71376037597656 L 225.76797485351562 71.49745178222656 Q 224.49844360351562 72.21473693847656 223.10195922851562 72.21473693847656 Q 221.00088500976562 72.21473693847656 219.51553344726562 70.74842834472656 Q 218.03652954101562 69.26942443847656 218.03652954101562 67.18104553222656 Q 218.03652954101562 65.30848693847656 219.27432250976562 63.84217834472656 Q 220.79776000976562 62.04579162597656 223.21621704101562 62.04579162597656 Q 224.53652954101562 62.04579162597656 225.76797485351562 62.76307678222656 Z M 231.90699768066406 62.23622131347656 L 231.90699768066406 68.13954162597656 Q 231.90699768066406 69.40272521972656 232.31959533691406 69.98670959472656 Q 232.93531799316406 70.83094787597656 234.05250549316406 70.83094787597656 Q 235.17604064941406 70.83094787597656 235.79176330566406 69.98670959472656 Q 236.20436096191406 69.42176818847656 236.20436096191406 68.13954162597656 L 236.20436096191406 62.23622131347656 L 237.68336486816406 62.23622131347656 L 237.68336486816406 68.54579162597656 Q 237.68336486816406 70.09461975097656 236.71852111816406 71.09754943847656 Q 235.63307189941406 72.21473693847656 234.05250549316406 72.21473693847656 Q 232.47193908691406 72.21473693847656 231.39283752441406 71.09754943847656 Q 230.42799377441406 70.09461975097656 230.42799377441406 68.54579162597656 L 230.42799377441406 62.23622131347656 Z M 248.36697387695312 63.69618225097656 L 247.16726684570312 64.40711975097656 Q 246.83084106445312 63.82313537597656 246.52615356445312 63.64540100097656 Q 246.20877075195312 63.44227600097656 245.70730590820312 63.44227600097656 Q 245.09158325195312 63.44227600097656 244.68533325195312 63.79139709472656 Q 244.27908325195312 64.13417053222656 244.27908325195312 64.65467834472656 Q 244.27908325195312 65.37196350097656 245.34548950195312 65.80995178222656 L 246.32302856445312 66.20985412597656 Q 247.51638793945312 66.69227600097656 248.06863403320312 67.38734436035156 Q 248.62088012695312 68.08241271972656 248.62088012695312 69.09169006347656 Q 248.62088012695312 70.44374084472656 247.71951293945312 71.32606506347656 Q 246.81179809570312 72.21473693847656 245.46609497070312 72.21473693847656 Q 244.19021606445312 72.21473693847656 243.35867309570312 71.45936584472656 Q 242.53982543945312 70.70399475097656 242.33670043945312 69.33290100097656 L 243.83474731445312 69.00282287597656 Q 243.93630981445312 69.86610412597656 244.19021606445312 70.19618225097656 Q 244.64724731445312 70.83094787597656 245.52322387695312 70.83094787597656 Q 246.21511840820312 70.83094787597656 246.67214965820312 70.36756896972656 Q 247.12918090820312 69.90419006347656 247.12918090820312 69.19325256347656 Q 247.12918090820312 68.90760803222656 247.04983520507812 68.66957092285156 Q 246.97048950195312 68.43153381347656 246.80227661132812 68.23158264160156 Q 246.63406372070312 68.03163146972656 246.36746215820312 67.85707092285156 Q 246.10086059570312 67.68251037597656 245.73269653320312 67.52381896972656 L 244.78689575195312 67.13026428222656 Q 242.77468872070312 66.27967834472656 242.77468872070312 64.64198303222656 Q 242.77468872070312 63.53749084472656 243.61892700195312 62.79481506347656 Q 244.46316528320312 62.04579162597656 245.72000122070312 62.04579162597656 Q 247.41482543945312 62.04579162597656 248.36697387695312 63.69618225097656 Z M 255.9954833984375 63.62635803222656 L 255.9954833984375 72.03700256347656 L 254.5164794921875 72.03700256347656 L 254.5164794921875 63.62635803222656 L 252.2630615234375 63.62635803222656 L 252.2630615234375 62.23622131347656 L 258.2425537109375 62.23622131347656 L 258.2425537109375 63.62635803222656 Z M 261.8063659667969 67.09217834472656 Q 261.8063659667969 65.02284240722656 263.3234558105469 63.53749084472656 Q 264.8341979980469 62.05213928222656 266.9543151855469 62.05213928222656 Q 269.0490417480469 62.05213928222656 270.5470886230469 63.55018615722656 Q 272.0514831542969 65.04823303222656 272.0514831542969 67.14930725097656 Q 272.0514831542969 69.26307678222656 270.5407409667969 70.73573303222656 Q 269.0236511230469 72.21473693847656 266.8781433105469 72.21473693847656 Q 264.9801940917969 72.21473693847656 263.4694519042969 70.90077209472656 Q 261.8063659667969 69.44715881347656 261.8063659667969 67.09217834472656 Z M 263.2980651855469 67.11122131347656 Q 263.2980651855469 68.73622131347656 264.3898620605469 69.78358459472656 Q 265.4753112792969 70.83094787597656 266.8971862792969 70.83094787597656 Q 268.4396667480469 70.83094787597656 269.4997253417969 69.76454162597656 Q 270.5597839355469 68.68544006347656 270.5597839355469 67.13661193847656 Q 270.5597839355469 65.56874084472656 269.5124206542969 64.50868225097656 Q 268.4714050292969 63.44227600097656 266.9352722167969 63.44227600097656 Q 265.4054870605469 63.44227600097656 264.3517761230469 64.50868225097656 Q 263.2980651855469 65.56239318847656 263.2980651855469 67.11122131347656 Z M 276.20526123046875 72.03700256347656 L 278.26824951171875 61.49989318847656 L 281.63250732421875 69.11708068847656 L 285.11737060546875 61.49989318847656 L 286.97088623046875 72.03700256347656 L 285.45379638671875 72.03700256347656 L 284.50799560546875 66.12098693847656 L 281.60711669921875 72.48768615722656 L 278.78875732421875 66.11463928222656 L 277.73504638671875 72.03700256347656 Z M 297.37957763671875 63.69618225097656 L 296.17987060546875 64.40711975097656 Q 295.84344482421875 63.82313537597656 295.53875732421875 63.64540100097656 Q 295.22137451171875 63.44227600097656 294.71990966796875 63.44227600097656 Q 294.10418701171875 63.44227600097656 293.69793701171875 63.79139709472656 Q 293.29168701171875 64.13417053222656 293.29168701171875 64.65467834472656 Q 293.29168701171875 65.37196350097656 294.35809326171875 65.80995178222656 L 295.33563232421875 66.20985412597656 Q 296.52899169921875 66.69227600097656 297.08123779296875 67.38734436035156 Q 297.63348388671875 68.08241271972656 297.63348388671875 69.09169006347656 Q 297.63348388671875 70.44374084472656 296.73211669921875 71.32606506347656 Q 295.82440185546875 72.21473693847656 294.47869873046875 72.21473693847656 Q 293.20281982421875 72.21473693847656 292.37127685546875 71.45936584472656 Q 291.55242919921875 70.70399475097656 291.34930419921875 69.33290100097656 L 292.84735107421875 69.00282287597656 Q 292.94891357421875 69.86610412597656 293.20281982421875 70.19618225097656 Q 293.65985107421875 70.83094787597656 294.53582763671875 70.83094787597656 Q 295.22772216796875 70.83094787597656 295.68475341796875 70.36756896972656 Q 296.14178466796875 69.90419006347656 296.14178466796875 69.19325256347656 Q 296.14178466796875 68.90760803222656 296.06243896484375 68.66957092285156 Q 295.98309326171875 68.43153381347656 295.81488037109375 68.23158264160156 Q 295.64666748046875 68.03163146972656 295.38006591796875 67.85707092285156 Q 295.11346435546875 67.68251037597656 294.74530029296875 67.52381896972656 L 293.79949951171875 67.13026428222656 Q 291.78729248046875 66.27967834472656 291.78729248046875 64.64198303222656 Q 291.78729248046875 63.53749084472656 292.63153076171875 62.79481506347656 Q 293.47576904296875 62.04579162597656 294.73260498046875 62.04579162597656 Q 296.42742919921875 62.04579162597656 297.37957763671875 63.69618225097656 Z" transform="matrix(1, 0, 0, 1, 0, 0)" style="fill: url(#gradient-4); paint-order: fill; white-space: pre;"/>
  <rect x="64.651" y="50.447" width="232.766" height="2.004" style="paint-order: fill; fill-rule: nonzero; stroke: rgba(0, 0, 0, 0); fill: url(#gradient-1);"/>
  <g id="SvgjsG5446" featurekey="monogramFeature-0" transform="matrix(0.563936, 0, 0, 0.563936, 151.56073, 94.143181)" fill="url(#SvgjsLinearGradient5457)"/>
</svg>