<?xml version="1.0" encoding="UTF-8" standalone="no" ?>
<!DOCTYPE svg PUBLIC "-//W3C//DTD SVG 1.1//EN" "http://www.w3.org/Graphics/SVG/1.1/DTD/svg11.dtd">
<svg xmlns="http://www.w3.org/2000/svg" xmlns:xlink="http://www.w3.org/1999/xlink" version="1.1" width="406" height="100" viewBox="0 0 406 100" xml:space="preserve">
<defs id="SvgjsDefs5444">
<linearGradient id="SvgjsLinearGradient5453">
<stop id="SvgjsStop5454" stop-color="#8f5e25" offset="0"></stop>
<stop id="SvgjsStop5455" stop-color="#fbf4a1" offset="0.5"></stop>
<stop id="SvgjsStop5456" stop-color="#8f5e25" offset="1"></stop>
</linearGradient>
<linearGradient id="SvgjsLinearGradient5457">
<stop id="SvgjsStop5458" stop-color="#8f5e25" offset="0"></stop>
<stop id="SvgjsStop5459" stop-color="#fbf4a1" offset="0.5"></stop>
<stop id="SvgjsStop5460" stop-color="#8f5e25" offset="1"></stop>
</linearGradient>
<linearGradient id="SvgjsLinearGradient5461">
<stop id="SvgjsStop5462" stop-color="#8f5e25" offset="0"></stop>
<stop id="SvgjsStop5463" stop-color="#fbf4a1" offset="0.5"></stop>
<stop id="SvgjsStop5464" stop-color="#8f5e25" offset="1"></stop>
</linearGradient>
<linearGradient id="SvgjsLinearGradient5465">
<stop id="SvgjsStop5466" stop-color="#8f5e25" offset="0"></stop>
<stop id="SvgjsStop5467" stop-color="#fbf4a1" offset="0.5"></stop>
<stop id="SvgjsStop5468" stop-color="#8f5e25" offset="1"></stop>
</linearGradient>
</defs>
<g id="SvgjsG5445" featurekey="symbolContainer" transform="matrix(0.9560228887657682,0,0,0.9560228887657682,306.000005960464,0.000005960464042790187)" fill="url(#SvgjsLinearGradient5453)">
<path xmlns="http://www.w3.org/2000/svg" d="M52.3 104.6a52.3 52.3 0 1 1 52.3-52.3 52.4 52.4 0 0 1-52.3 52.3zm0-102.3a50 50 0 1 0 50 50 50 50 0 0 0-50-50z"></path>
</g>
<g id="SvgjsG5446" featurekey="monogramFeature-0" transform="matrix(0.5639359907755734,0,0,0.5639359907755734,321.17581910359934,25.6688968232232)" fill="url(#SvgjsLinearGradient5457)">
<path d="M41.833 25.426000000000002 c4.462 0 11.1 2.7478 11.1 10.316 s-6.1692 10.316 -10.316 10.316 l-30.516 0 l-0.050215 13.603 l-7.0428 -0.026309 l0.11338 -30.682 l0 -3.5271 l0.012949 0 l0 -0.012949 l3.5215 0.012949 l33.177 0 z M44.567 38.471000000000004 c0.65448 -0.36217 1.3239 -0.96912 1.3235 -2.7286 c0 -1.4149 -0.47871 -2.1809 -1.7084 -2.7322 c-1.1175 -0.50104 -2.3378 -0.54146 -2.3491 -0.54146 l-29.668 0 l0 6.5467 l30.422 0 c0.30721 -0.010606 1.2245 -0.12633 1.9807 -0.54457 z M119.336 36.126999999999995 c0 3.0244 -0.98634 5.277 -2.4342 6.8946 c1.4557 1.6013 2.4339 3.7927 2.4339 6.6954 c0 7.569 -6.1692 10.316 -10.316 10.316 l-37.496 0 l0 -34.223 l36.711 0 c4.4624 0 11.101 2.7474 11.101 10.316 z M110.97 52.4454 c0.65448 -0.36217 1.3235 -0.96954 1.3231 -2.7289 c0 -1.4149 -0.47906 -2.1809 -1.7084 -2.7322 c-1.1175 -0.50104 -2.3378 -0.54146 -2.3491 -0.54146 l-29.668 0 l0 6.5467 l30.422 0 c0.30721 -0.010195 1.225 -0.12592 1.9811 -0.54416 z M110.969 38.856 c0.65448 -0.36217 1.3235 -0.96912 1.3235 -2.7289 c0 -1.4149 -0.47906 -2.1809 -1.7084 -2.7322 c-1.1175 -0.50104 -2.3378 -0.54146 -2.3491 -0.54146 l-29.668 0 l0 6.5467 l30.421 0 c0.30721 -0.010195 1.225 -0.12592 1.9811 -0.54416 z"></path>
</g>
<g id="SvgjsG5447" featurekey="nameFeature-0" transform="matrix(0.759386758489009,0,0,0.759386758489009,-2.5346253781941828,16.825509712373993)" fill="url(#SvgjsLinearGradient5461)">
<path d="M27.888 16.95 c2.9747 0 7.4 1.8319 7.4 6.8776 s-4.1128 6.8776 -6.8776 6.8776 l-20.344 0 l-0.033476 9.0684 l-4.6952 -0.017539 l0.075588 -20.455 l0 -2.3514 l0.0086328 0 l0 -0.0086328 l2.3477 0.0086328 l22.118 0 z M29.711 25.647 c0.43632 -0.24144 0.8826 -0.64608 0.88236 -1.819 c0 -0.94328 -0.31914 -1.4539 -1.139 -1.8214 c-0.745 -0.33402 -1.5585 -0.36098 -1.5661 -0.36098 l-19.779 0 l0 4.3645 l20.281 0 c0.2048 -0.0070704 0.81636 -0.08422 1.3204 -0.36305 z M51.311 15.421 l18.353 24.38 l-5.9015 0 l-5.132 -6.7948 l-14.639 0 l-5.0572 6.7948 l-5.8354 0 z M47.512 28.311 l7.5966 0 l-3.7984 -5.0644 z M106.374 16.974 l0.083516 11.4 c0.034258 2.5224 -0.98356 4.9712 -2.8664 6.896 c-1.9964 2.0406 -5.8816 4.484 -13.054 4.5368 c-0.069572 0.0005078 -0.13941 0.00078124 -0.20848 0.00078124 c-5.4292 0 -9.9632 -1.5595 -12.785 -4.402 c-1.9399 -1.954 -2.9907 -4.4436 -2.9611 -7.0128 l-0.083984 -11.384 l4.6952 -0.034805 l0.084492 11.433 l-0.00027344 0.025625 c-0.019375 1.3246 0.53336 2.5915 1.598 3.664 c1.9603 1.9747 5.3772 3.043 9.6272 3.014 c4.3352 -0.031914 7.7912 -1.1416 9.732 -3.1251 c1.0183 -1.0408 1.5467 -2.2692 1.5279 -3.553 l0 -0.016758 l-0.08422 -11.407 z M117.87400000000001 35.238 l27.18 0 l0 4.6954 l-31.875 0 l0 -22.815 l4.6954 0 l0 18.119 z M158.3824 14.504999999999999 l-2.0408 8.414 l-4.5628 -1.1067 l2.0408 -8.414 z M170.676 22.009 c-0.43632 0.24117 -0.88236 0.64612 -0.88236 1.8193 c0 0.91448 0.29558 1.4144 1.0547 1.7822 c0.76772 0.37195 1.6239 0.39914 1.6671 0.4002 l17.067 0.06672 c2.9656 0 7.3912 1.8316 7.3912 6.8776 s-4.1128 6.8776 -6.8776 6.8776 l-24.997 0 l0 -4.6954 l24.977 0 c0.2048 -0.0070704 0.81636 -0.08422 1.3204 -0.36305 c0.43656 -0.24144 0.88256 -0.64636 0.88256 -1.8193 c0 -0.91448 -0.29558 -1.4144 -1.0547 -1.7822 c-0.7654 -0.37094 -1.6208 -0.39894 -1.6686 -0.40024 l-17.056 -0.07586 l0 0.0091406 c-2.975 0 -7.4008 -1.8316 -7.4008 -6.8776 s4.1128 -6.8776 6.8776 -6.8776 l24.997 0 l0 4.6954 l-24.976 0 c-0.20457 0.0070704 -0.81668 0.08422 -1.321 0.36305 z M253.214 24.085 c0 2.0163 -0.65756 3.518 -1.6228 4.5964 c0.97048 1.0675 1.6226 2.5284 1.6226 4.4636 c0 5.046 -4.1128 6.8776 -6.8776 6.8776 l-24.997 0 l0 -22.815 l24.474 0 c2.975 0 7.4008 1.8316 7.4008 6.8776 z M247.636 34.9636 c0.43632 -0.24144 0.88232 -0.64636 0.88204 -1.8193 c0 -0.94328 -0.31938 -1.4539 -1.1389 -1.8214 c-0.745 -0.33402 -1.5585 -0.36098 -1.5661 -0.36098 l-19.779 0 l0 4.3645 l20.281 0 c0.2048 -0.0067968 0.81664 -0.083944 1.3207 -0.36277 z M247.636 25.904 c0.43632 -0.24144 0.88232 -0.64608 0.88232 -1.8193 c0 -0.94328 -0.31938 -1.4539 -1.1389 -1.8214 c-0.745 -0.33402 -1.5585 -0.36098 -1.5661 -0.36098 l-19.779 0 l0 4.3645 l20.281 0 c0.2048 -0.0067968 0.81664 -0.083944 1.3207 -0.36277 z M263.9076 40.04922 l-4.6491 0 l0 -22.591 l4.6491 0 l0 22.591 z M302.11199999999997 35.238 l0.069492 4.6488 l-2.3241 0.034805 c-0.36098 0.005508 -0.76928 0.011797 -1.2148 0.011797 c-3.2182 0 -8.3796 -0.31965 -11.644 -3.536 c-1.5507 -1.5276 -2.4884 -3.4984 -2.8028 -5.8728 c-1.7086 0.24875 -3.5884 0.38398 -5.6452 0.38398 l-3.2821 0 l0 8.9704 l-4.6491 0 l0 -22.59 l4.6491 0 l0 8.9707 l3.2821 0 c9.5164 0 14.496 -3.2504 14.496 -6.4616 l0 -2.3247 l4.6491 0 l0 2.3244 c0 3.8217 -2.8274 7.6668 -8.938 9.6784 c0.12426 1.5509 0.61892 2.7377 1.5041 3.6098 c2.3304 2.2956 7.1908 2.2229 9.5268 2.1878 z M340.77399999999994 21.902 l-27.18 0.000039062 l0 4.3726 l18.128 0.0675 l-0.017266 4.6956 l-18.111 -0.0675 l0 4.3564 l27.18 0 l0 4.6954 l-31.875 0 l0 -22.815 l31.875 0 l0 4.6951 z M353.03599999999994 22.009 c-0.43632 0.24117 -0.88236 0.64612 -0.88236 1.8193 c0 0.91448 0.29558 1.4144 1.0547 1.7822 c0.76772 0.37195 1.6239 0.39914 1.6671 0.4002 l17.067 0.06672 c2.9656 0 7.3912 1.8316 7.3912 6.8776 s-4.1128 6.8776 -6.8776 6.8776 l-24.997 0 l0 -4.6954 l24.977 0 c0.2048 -0.0070704 0.81636 -0.08422 1.3204 -0.36305 c0.43656 -0.24144 0.88256 -0.64636 0.88256 -1.8193 c0 -0.91448 -0.29558 -1.4144 -1.0547 -1.7822 c-0.7654 -0.37094 -1.6208 -0.39894 -1.6686 -0.40024 l-17.056 -0.07586 l0 0.0091406 c-2.975 0 -7.4008 -1.8316 -7.4008 -6.8776 s4.1128 -6.8776 6.8776 -6.8776 l24.997 0 l0 4.6954 l-24.976 0 c-0.20457 0.0070704 -0.81668 0.08422 -1.321 0.36305 z"></path>
</g>
<g id="SvgjsG5448" featurekey="sloganFeature-0" transform="matrix(0.5399261653746442,0,0,0.5399261653746442,138.1204058522845,62.83662935733301)" fill="url(#SvgjsLinearGradient5465)">
<path d="M17.567 12.0424 c0 1.0081 -0.32878 1.759 -0.8114 2.2982 c0.48524 0.53376 0.8113 1.2642 0.8113 2.2318 c0 2.523 -2.0564 3.4388 -3.4388 3.4388 l-12.499 0 l0 -11.408 l12.237 0 c1.4875 0 3.7004 0.9158 3.7004 3.4388 z M14.778 17.4818 c0.21816 -0.12072 0.44116 -0.32318 0.44102 -0.90964 c0 -0.47164 -0.15969 -0.72696 -0.56946 -0.91072 c-0.3725 -0.16701 -0.77926 -0.18049 -0.78304 -0.18049 l-9.8895 0 l0 2.1822 l10.141 0 c0.1024 -0.0033984 0.40832 -0.041972 0.66036 -0.18139 z M14.778 12.952 c0.21816 -0.12072 0.44116 -0.32304 0.44116 -0.90964 c0 -0.47164 -0.15969 -0.72696 -0.56946 -0.91072 c-0.3725 -0.16701 -0.77926 -0.18049 -0.78304 -0.18049 l-9.8895 0 l0 2.1822 l10.14 0 c0.1024 -0.0033984 0.40832 -0.041972 0.66036 -0.18139 z M41.829 8.487 l0.041758 5.7 c0.017129 1.2612 -0.49178 2.4856 -1.4332 3.448 c-0.9982 1.0203 -2.9408 2.242 -6.5268 2.2684 c-0.034786 0.0002539 -0.069706 0.00039062 -0.10424 0.00039062 c-2.7146 0 -4.9816 -0.77976 -6.3926 -2.201 c-0.96994 -0.97702 -1.4953 -2.2218 -1.4805 -3.5064 l-0.041992 -5.6918 l2.3476 -0.017402 l0.042246 5.7166 l-0.00013672 0.012813 c-0.0096876 0.66232 0.26668 1.2957 0.799 1.832 c0.98014 0.98734 2.6886 1.5215 4.8136 1.507 c2.1676 -0.015957 3.8956 -0.57078 4.866 -1.5626 c0.50916 -0.5204 0.77336 -1.1346 0.76394 -1.7765 l0 -0.0083789 l-0.04211 -5.7036 z M52.857800000000005 20.02461 l-2.3246 0 l0 -11.295 l2.3246 0 l0 11.295 z M63.86300000000001 17.619 l13.59 0 l0 2.3477 l-15.938 0 l0 -11.407 l2.3477 0 l0 9.0597 z M83.11720000000001 8.475 l15.938 0 l0 2.3477 l-6.7954 0 l0 9.0932 l-2.3476 0 l0 -9.0932 l-6.7946 0 l0 -2.3477 z M137.799 12.0424 c0 1.0081 -0.32878 1.759 -0.8114 2.2982 c0.48524 0.53376 0.8113 1.2642 0.8113 2.2318 c0 2.523 -2.0564 3.4388 -3.4388 3.4388 l-12.499 0 l0 -11.408 l12.237 0 c1.4875 0 3.7004 0.9158 3.7004 3.4388 z M135.01000000000002 17.4818 c0.21816 -0.12072 0.44116 -0.32318 0.44102 -0.90964 c0 -0.47164 -0.15969 -0.72696 -0.56946 -0.91072 c-0.3725 -0.16701 -0.77926 -0.18049 -0.78304 -0.18049 l-9.8895 0 l0 2.1822 l10.141 0 c0.1024 -0.0033984 0.40832 -0.041972 0.66036 -0.18139 z M135.01000000000002 12.952 c0.21816 -0.12072 0.44116 -0.32304 0.44116 -0.90964 c0 -0.47164 -0.15969 -0.72696 -0.56946 -0.91072 c-0.3725 -0.16701 -0.77926 -0.18049 -0.78304 -0.18049 l-9.8895 0 l0 2.1822 l10.14 0 c0.1024 -0.0033984 0.40832 -0.041972 0.66036 -0.18139 z M161.544 8.445 l0.016758 1.1737 c0.01832 1.2629 -0.49072 2.489 -1.4333 3.4524 c-0.88466 0.90428 -2.5122 1.966 -5.367 2.2142 l-0.036758 4.6262 l-2.3476 -0.016094 l0.036484 -4.5994 c-2.2324 -0.18141 -4.09 -0.92992 -5.3086 -2.1572 c-0.97334 -0.9804 -1.4991 -2.2306 -1.4804 -3.5202 l0.017129 -1.1737 l2.3474 0.03414 l-0.017012 1.1737 c-0.0095508 0.66232 0.26668 1.2959 0.79912 1.832 c0.98028 0.98734 2.6908 1.5237 4.8134 1.507 c2.1676 -0.01582 3.8956 -0.57064 4.8658 -1.5624 c0.50916 -0.5203 0.77322 -1.1346 0.76394 -1.7765 l-0.017012 -1.1737 z M197.997 8.617 l2.3476 0 l0 11.407 l-2.3476 0 l0 -4.5299 l-11.242 0 l0 4.5299 l-2.3477 0 l0 -11.407 l2.3477 0 l0 4.5299 l11.242 0 l0 -4.5299 z M217.1554 7.711 l9.1766 12.19 l-2.9508 0 l-2.566 -3.3974 l-7.3197 0 l-2.5286 3.3974 l-2.9177 0 z M215.2562 14.1556 l3.7983 0 l-1.8992 -2.5322 z M247.64100000000002 8.593 l2.3476 0 l0 11.25 l-13.59 -7.098 l0 7.2556 l-2.3477 0 l0 -11.25 l13.59 7.098 l0 -7.2556 z M273.117 10.8272 c0.95568 0.96942 1.4718 2.2114 1.4534 3.497 c-0.02289 1.5915 -0.78998 3.0436 -2.16 4.0892 c-1.4271 1.089 -3.4354 1.6646 -5.8082 1.6646 c-4.5288 0 -6.808 -0.0667 -6.8304 -0.067344 l-1.1387 -0.03414 l0 -11.373 l7.9691 0 c3.5728 0 5.5148 1.2092 6.5148 2.2236 z M266.6024 17.7304 c3.8486 0 5.5962 -1.7276 5.6208 -3.4396 c0.009414 -0.66168 -0.25962 -1.2893 -0.77796 -1.8153 c-0.9689 -0.9829 -2.6888 -1.5241 -4.843 -1.5241 l-5.6214 0 l0 6.737 c1.09 0.018965 2.963 0.041992 5.6214 0.041992 z"></path>
</g>
</svg>